<svg width="25" height="25" viewBox="0 0 25 25" fill="none" xmlns="http://www.w3.org/2000/svg">
<circle cx="12.5" cy="12.5" r="12.5" fill="#D9C73D"/>
<mask id="path-2-outside-1_4366_730" maskUnits="userSpaceOnUse" x="5" y="7" width="16" height="11" fill="black">
<rect fill="white" x="5" y="7" width="16" height="11"/>
<path d="M9.908 17.108C9.004 17.108 8.24 16.936 7.616 16.592C7 16.248 6.532 15.752 6.212 15.104C5.892 14.456 5.732 13.68 5.732 12.776C5.732 12.104 5.82 11.5 5.996 10.964C6.18 10.428 6.444 9.976 6.788 9.608C7.14 9.232 7.564 8.944 8.06 8.744C8.564 8.536 9.132 8.432 9.764 8.432C10.268 8.432 10.756 8.504 11.228 8.648C11.7 8.784 12.12 9.004 12.488 9.308C12.584 9.38 12.644 9.46 12.668 9.548C12.692 9.636 12.688 9.724 12.656 9.812C12.632 9.9 12.588 9.976 12.524 10.04C12.468 10.096 12.392 10.128 12.296 10.136C12.208 10.144 12.116 10.116 12.02 10.052C11.692 9.796 11.344 9.612 10.976 9.5C10.608 9.38 10.2 9.32 9.752 9.32C9.112 9.32 8.568 9.456 8.12 9.728C7.68 10 7.344 10.392 7.112 10.904C6.888 11.416 6.776 12.04 6.776 12.776C6.776 13.896 7.036 14.752 7.556 15.344C8.084 15.936 8.876 16.232 9.932 16.232C10.316 16.232 10.692 16.196 11.06 16.124C11.428 16.044 11.776 15.936 12.104 15.8L11.888 16.364V13.376H10.172C10.028 13.376 9.92 13.34 9.848 13.268C9.776 13.196 9.74 13.1 9.74 12.98C9.74 12.852 9.776 12.756 9.848 12.692C9.92 12.628 10.028 12.596 10.172 12.596H12.32C12.456 12.596 12.56 12.632 12.632 12.704C12.704 12.776 12.74 12.88 12.74 13.016V16.148C12.74 16.268 12.72 16.368 12.68 16.448C12.64 16.528 12.572 16.588 12.476 16.628C12.14 16.764 11.736 16.88 11.264 16.976C10.8 17.064 10.348 17.108 9.908 17.108ZM15.279 17.084C15.111 17.084 14.979 17.04 14.883 16.952C14.795 16.856 14.751 16.72 14.751 16.544V9.08C14.751 8.904 14.795 8.772 14.883 8.684C14.979 8.588 15.115 8.54 15.291 8.54H19.647C19.783 8.54 19.887 8.576 19.959 8.648C20.031 8.72 20.067 8.82 20.067 8.948C20.067 9.084 20.031 9.188 19.959 9.26C19.887 9.332 19.783 9.368 19.647 9.368H15.735V12.32H19.395C19.531 12.32 19.635 12.356 19.707 12.428C19.787 12.5 19.827 12.6 19.827 12.728C19.827 12.864 19.787 12.968 19.707 13.04C19.635 13.112 19.531 13.148 19.395 13.148H15.735V16.544C15.735 16.904 15.583 17.084 15.279 17.084Z"/>
</mask>
<path d="M9.908 17.108C9.004 17.108 8.24 16.936 7.616 16.592C7 16.248 6.532 15.752 6.212 15.104C5.892 14.456 5.732 13.68 5.732 12.776C5.732 12.104 5.82 11.5 5.996 10.964C6.18 10.428 6.444 9.976 6.788 9.608C7.14 9.232 7.564 8.944 8.06 8.744C8.564 8.536 9.132 8.432 9.764 8.432C10.268 8.432 10.756 8.504 11.228 8.648C11.7 8.784 12.12 9.004 12.488 9.308C12.584 9.38 12.644 9.46 12.668 9.548C12.692 9.636 12.688 9.724 12.656 9.812C12.632 9.9 12.588 9.976 12.524 10.04C12.468 10.096 12.392 10.128 12.296 10.136C12.208 10.144 12.116 10.116 12.02 10.052C11.692 9.796 11.344 9.612 10.976 9.5C10.608 9.38 10.2 9.32 9.752 9.32C9.112 9.32 8.568 9.456 8.12 9.728C7.68 10 7.344 10.392 7.112 10.904C6.888 11.416 6.776 12.04 6.776 12.776C6.776 13.896 7.036 14.752 7.556 15.344C8.084 15.936 8.876 16.232 9.932 16.232C10.316 16.232 10.692 16.196 11.06 16.124C11.428 16.044 11.776 15.936 12.104 15.8L11.888 16.364V13.376H10.172C10.028 13.376 9.92 13.34 9.848 13.268C9.776 13.196 9.74 13.1 9.74 12.98C9.74 12.852 9.776 12.756 9.848 12.692C9.92 12.628 10.028 12.596 10.172 12.596H12.32C12.456 12.596 12.56 12.632 12.632 12.704C12.704 12.776 12.74 12.88 12.74 13.016V16.148C12.74 16.268 12.72 16.368 12.68 16.448C12.64 16.528 12.572 16.588 12.476 16.628C12.14 16.764 11.736 16.88 11.264 16.976C10.8 17.064 10.348 17.108 9.908 17.108ZM15.279 17.084C15.111 17.084 14.979 17.04 14.883 16.952C14.795 16.856 14.751 16.72 14.751 16.544V9.08C14.751 8.904 14.795 8.772 14.883 8.684C14.979 8.588 15.115 8.54 15.291 8.54H19.647C19.783 8.54 19.887 8.576 19.959 8.648C20.031 8.72 20.067 8.82 20.067 8.948C20.067 9.084 20.031 9.188 19.959 9.26C19.887 9.332 19.783 9.368 19.647 9.368H15.735V12.32H19.395C19.531 12.32 19.635 12.356 19.707 12.428C19.787 12.5 19.827 12.6 19.827 12.728C19.827 12.864 19.787 12.968 19.707 13.04C19.635 13.112 19.531 13.148 19.395 13.148H15.735V16.544C15.735 16.904 15.583 17.084 15.279 17.084Z" fill="#E9E9E9"/>
<path d="M7.616 16.592L7.37221 17.0285L7.37461 17.0299L7.616 16.592ZM5.996 10.964L5.52305 10.8016L5.52095 10.808L5.996 10.964ZM6.788 9.608L6.42299 9.26629L6.42274 9.26656L6.788 9.608ZM8.06 8.744L8.24699 9.20774L8.25074 9.20619L8.06 8.744ZM11.228 8.648L11.0821 9.1263L11.0896 9.12845L11.228 8.648ZM12.488 9.308L12.1696 9.69348L12.1786 9.70096L12.188 9.708L12.488 9.308ZM12.668 9.548L13.1504 9.41644L13.1504 9.41644L12.668 9.548ZM12.656 9.812L12.1861 9.64113L12.179 9.66053L12.1736 9.68044L12.656 9.812ZM12.524 10.04L12.1704 9.68645L12.1704 9.68645L12.524 10.04ZM12.296 10.136L12.2545 9.63771L12.2507 9.63805L12.296 10.136ZM12.02 10.052L11.7124 10.4462L11.7271 10.4577L11.7426 10.468L12.02 10.052ZM10.976 9.5L10.821 9.97546L10.8304 9.97834L10.976 9.5ZM8.12 9.728L7.8605 9.30059L7.85709 9.3027L8.12 9.728ZM7.112 10.904L6.65653 10.6976L6.65392 10.7036L7.112 10.904ZM7.556 15.344L7.18033 15.674L7.18285 15.6768L7.556 15.344ZM11.06 16.124L11.156 16.6148L11.1662 16.6126L11.06 16.124ZM12.104 15.8L12.5709 15.9788L12.9869 14.8926L11.9125 15.3381L12.104 15.8ZM11.888 16.364H11.388L12.3549 16.5428L11.888 16.364ZM11.888 13.376H12.388V12.876H11.888V13.376ZM9.848 12.692L9.51582 12.3183L9.51582 12.3183L9.848 12.692ZM12.68 16.448L12.2328 16.2244L12.68 16.448ZM12.476 16.628L12.6636 17.0915L12.6683 17.0895L12.476 16.628ZM11.264 16.976L11.3572 17.4673L11.3637 17.466L11.264 16.976ZM9.908 16.608C9.0662 16.608 8.39018 16.4478 7.85739 16.1541L7.37461 17.0299C8.08982 17.4242 8.9418 17.608 9.908 17.608V16.608ZM7.85978 16.1555C7.33443 15.8621 6.93665 15.4422 6.66032 14.8826L5.76368 15.3254C6.12735 16.0618 6.66557 16.6339 7.37222 17.0285L7.85978 16.1555ZM6.66032 14.8826C6.38176 14.3185 6.232 13.622 6.232 12.776H5.232C5.232 13.738 5.40224 14.5935 5.76368 15.3254L6.66032 14.8826ZM6.232 12.776C6.232 12.1472 6.31439 11.5971 6.47105 11.12L5.52095 10.808C5.32561 11.4029 5.232 12.0608 5.232 12.776H6.232ZM6.46891 11.1263C6.63291 10.6486 6.86304 10.2599 7.15326 9.94944L6.42274 9.26656C6.02496 9.69208 5.72709 10.2074 5.52309 10.8017L6.46891 11.1263ZM7.15301 9.94971C7.45334 9.62891 7.81584 9.38157 8.24698 9.20772L7.87302 8.28028C7.31216 8.50643 6.82666 8.83509 6.42299 9.26629L7.15301 9.94971ZM8.25074 9.20619C8.68541 9.0268 9.18715 8.932 9.764 8.932V7.932C9.07685 7.932 8.44259 8.0452 7.86926 8.28181L8.25074 9.20619ZM9.764 8.932C10.2196 8.932 10.6584 8.99697 11.0821 9.12624L11.3739 8.16976C10.8536 8.01103 10.3164 7.932 9.764 7.932V8.932ZM11.0896 9.12845C11.4976 9.24604 11.856 9.43443 12.1696 9.69348L12.8064 8.92252C12.384 8.57357 11.9024 8.32196 11.3664 8.16755L11.0896 9.12845ZM12.188 9.708C12.2054 9.72106 12.2084 9.72658 12.205 9.722C12.2032 9.71954 12.1998 9.7146 12.196 9.70711C12.1922 9.69953 12.1885 9.69025 12.1856 9.67956L13.1504 9.41644C13.0891 9.19157 12.9448 9.02561 12.788 8.908L12.188 9.708ZM12.1856 9.67956C12.1844 9.67514 12.1831 9.66712 12.1835 9.6573C12.184 9.6476 12.1859 9.64173 12.1861 9.64113L13.1259 9.98287C13.1922 9.80053 13.2023 9.60691 13.1504 9.41644L12.1856 9.67956ZM12.1736 9.68044C12.1725 9.68443 12.1718 9.68525 12.1723 9.68448C12.1727 9.6837 12.1726 9.68425 12.1704 9.68645L12.8776 10.3936C13.0036 10.2675 13.0917 10.1148 13.1384 9.94356L12.1736 9.68044ZM12.1704 9.68645C12.1901 9.66683 12.2119 9.65323 12.231 9.64518C12.2489 9.63764 12.2586 9.63738 12.2545 9.63773L12.3375 10.6343C12.5249 10.6187 12.7209 10.5502 12.8776 10.3936L12.1704 9.68645ZM12.2507 9.63805C12.2765 9.63571 12.2963 9.63954 12.3066 9.64266C12.3155 9.64539 12.3125 9.64611 12.2974 9.63597L11.7426 10.468C11.9044 10.5758 12.1088 10.6551 12.3413 10.6339L12.2507 9.63805ZM12.3276 9.65784C11.9552 9.36717 11.5529 9.15295 11.1216 9.02166L10.8304 9.97834C11.1351 10.0711 11.4288 10.2248 11.7124 10.4462L12.3276 9.65784ZM11.131 9.02464C10.7058 8.88598 10.2445 8.82 9.752 8.82V9.82C10.1555 9.82 10.5102 9.87402 10.821 9.97536L11.131 9.02464ZM9.752 8.82C9.04073 8.82 8.40239 8.97161 7.86051 9.30061L8.37949 10.1554C8.73361 9.94039 9.18328 9.82 9.752 9.82V8.82ZM7.85709 9.3027C7.32525 9.63148 6.92586 10.1034 6.65657 10.6976L7.56743 11.1104C7.76214 10.6806 8.03475 10.3685 8.38291 10.1533L7.85709 9.3027ZM6.65392 10.7036C6.395 11.2954 6.276 11.9918 6.276 12.776H7.276C7.276 12.0882 7.381 11.5366 7.57008 11.1044L6.65392 10.7036ZM6.276 12.776C6.276 13.9668 6.5521 14.9587 7.18034 15.674L7.93166 15.014C7.5199 14.5453 7.276 13.8252 7.276 12.776H6.276ZM7.18285 15.6768C7.83442 16.4074 8.78318 16.732 9.932 16.732V15.732C8.96882 15.732 8.33358 15.4646 7.92915 15.0112L7.18285 15.6768ZM9.932 16.732C10.3475 16.732 10.7556 16.693 11.156 16.6147L10.964 15.6333C10.6284 15.699 10.2845 15.732 9.932 15.732V16.732ZM11.1662 16.6126C11.5616 16.5266 11.9383 16.41 12.2955 16.2619L11.9125 15.3381C11.6137 15.462 11.2944 15.5614 10.9538 15.6354L11.1662 16.6126ZM11.6371 15.6212L11.4211 16.1852L12.3549 16.5428L12.5709 15.9788L11.6371 15.6212ZM12.388 16.364V13.376H11.388V16.364H12.388ZM11.888 12.876H10.172V13.876H11.888V12.876ZM10.172 12.876C10.1402 12.876 10.1327 12.8718 10.1411 12.8747C10.1458 12.8762 10.1547 12.8797 10.166 12.8865C10.1775 12.8934 10.1898 12.9027 10.2016 12.9144L9.49445 13.6216C9.69329 13.8204 9.95093 13.876 10.172 13.876V12.876ZM10.2016 12.9144C10.2164 12.9293 10.2283 12.9481 10.2352 12.9664C10.2415 12.9833 10.24 12.9901 10.24 12.98H9.24C9.24 13.2071 9.31208 13.4392 9.49445 13.6216L10.2016 12.9144ZM10.24 12.98C10.24 12.9616 10.2427 12.9674 10.2352 12.9876C10.2265 13.0106 10.2088 13.0402 10.1802 13.0657L9.51582 12.3183C9.30496 12.5057 9.24 12.7587 9.24 12.98H10.24ZM10.1802 13.0657C10.167 13.0774 10.1543 13.0857 10.144 13.0912C10.1339 13.0966 10.127 13.0988 10.125 13.0994C10.1232 13.1 10.1257 13.099 10.1337 13.098C10.1418 13.097 10.1543 13.096 10.172 13.096V12.096C9.96449 12.096 9.71546 12.1408 9.51582 12.3183L10.1802 13.0657ZM10.172 13.096H12.32V12.096H10.172V13.096ZM12.32 13.096C12.3449 13.096 12.3478 13.0994 12.3364 13.0955C12.3305 13.0934 12.3213 13.0896 12.3105 13.0829C12.2995 13.0762 12.2886 13.0677 12.2784 13.0576L12.9856 12.3504C12.7916 12.1565 12.5427 12.096 12.32 12.096V13.096ZM12.2784 13.0576C12.2683 13.0474 12.2598 13.0365 12.2531 13.0255C12.2464 13.0147 12.2426 13.0055 12.2405 12.9996C12.2366 12.9882 12.24 12.9911 12.24 13.016H13.24C13.24 12.7933 13.1795 12.5444 12.9856 12.3504L12.2784 13.0576ZM12.24 13.016V16.148H13.24V13.016H12.24ZM12.24 16.148C12.24 16.2157 12.2283 16.2334 12.2328 16.2244L13.1272 16.6716C13.2117 16.5026 13.24 16.3203 13.24 16.148H12.24ZM12.2328 16.2244C12.2419 16.2061 12.2547 16.19 12.2682 16.1781C12.2808 16.1669 12.2884 16.1645 12.2837 16.1665L12.6683 17.0895C12.856 17.0113 13.025 16.8761 13.1272 16.6716L12.2328 16.2244ZM12.2884 16.1645C11.9884 16.286 11.6154 16.3943 11.1643 16.486L11.3637 17.466C11.8566 17.3657 12.2916 17.242 12.6636 17.0915L12.2884 16.1645ZM11.1708 16.4848C10.7353 16.5674 10.3146 16.608 9.908 16.608V17.608C10.3814 17.608 10.8647 17.5606 11.3572 17.4672L11.1708 16.4848ZM14.883 16.952L14.5145 17.2899L14.5291 17.3059L14.5452 17.3206L14.883 16.952ZM14.883 8.684L15.2366 9.03755V9.03755L14.883 8.684ZM15.735 9.368V8.868H15.235V9.368H15.735ZM15.735 12.32H15.235V12.82H15.735V12.32ZM19.707 12.428L19.3535 12.7816L19.3628 12.7909L19.3726 12.7996L19.707 12.428ZM19.707 13.04L19.3726 12.6684L19.3628 12.6771L19.3535 12.6864L19.707 13.04ZM15.735 13.148V12.648H15.235V13.148H15.735ZM15.279 16.584C15.238 16.584 15.2179 16.5786 15.2121 16.5767C15.2082 16.5753 15.2136 16.5767 15.2209 16.5834L14.5452 17.3206C14.7577 17.5154 15.0234 17.584 15.279 17.584V16.584ZM15.2516 16.6141C15.2607 16.624 15.2618 16.6305 15.2598 16.6241C15.2571 16.6158 15.251 16.5913 15.251 16.544H14.251C14.251 16.8005 14.316 17.0733 14.5145 17.2899L15.2516 16.6141ZM15.251 16.544V9.08H14.251V16.544H15.251ZM15.251 9.08C15.251 9.03217 15.2572 9.01068 15.2584 9.00711C15.2588 9.00583 15.2578 9.0092 15.254 9.0155C15.2501 9.02197 15.2444 9.02977 15.2366 9.03755L14.5295 8.33045C14.3146 8.54529 14.251 8.82693 14.251 9.08H15.251ZM15.2366 9.03755C15.2333 9.04083 15.2296 9.0437 15.2262 9.04582C15.2229 9.04788 15.2215 9.04816 15.2234 9.04749C15.2277 9.046 15.2477 9.04 15.291 9.04V8.04C15.0234 8.04 14.7447 8.1152 14.5295 8.33045L15.2366 9.03755ZM15.291 9.04H19.647V8.04H15.291V9.04ZM19.647 9.04C19.672 9.04 19.6748 9.04342 19.6635 9.03949C19.6575 9.03742 19.6484 9.03356 19.6375 9.02691C19.6266 9.02019 19.6156 9.01167 19.6055 9.00155L20.3126 8.29445C20.1187 8.10054 19.8697 8.04 19.647 8.04V9.04ZM19.6055 9.00155C19.5871 8.98322 19.5754 8.9625 19.5696 8.94636C19.5645 8.93221 19.567 8.93028 19.567 8.948H20.567C20.567 8.72333 20.501 8.48289 20.3126 8.29445L19.6055 9.00155ZM19.567 8.948C19.567 8.97295 19.5636 8.97578 19.5675 8.96444C19.5696 8.95845 19.5735 8.94932 19.5801 8.93849C19.5868 8.92754 19.5954 8.91656 19.6055 8.90645L20.3126 9.61355C20.5065 9.41964 20.567 9.17065 20.567 8.948H19.567ZM19.6055 8.90645C19.6156 8.89633 19.6266 8.88781 19.6375 8.88109C19.6484 8.87444 19.6575 8.87058 19.6635 8.86851C19.6748 8.86458 19.672 8.868 19.647 8.868V9.868C19.8697 9.868 20.1187 9.80746 20.3126 9.61355L19.6055 8.90645ZM19.647 8.868H15.735V9.868H19.647V8.868ZM15.235 9.368V12.32H16.235V9.368H15.235ZM15.735 12.82H19.395V11.82H15.735V12.82ZM19.395 12.82C19.42 12.82 19.4228 12.8234 19.4115 12.8195C19.4055 12.8174 19.3964 12.8136 19.3855 12.8069C19.3746 12.8002 19.3636 12.7917 19.3535 12.7816L20.0606 12.0744C19.8667 11.8805 19.6177 11.82 19.395 11.82V12.82ZM19.3726 12.7996C19.3556 12.7844 19.3412 12.7637 19.3328 12.7427C19.3252 12.7236 19.327 12.7159 19.327 12.728H20.327C20.327 12.4875 20.2468 12.2411 20.0415 12.0564L19.3726 12.7996ZM19.327 12.728C19.327 12.7478 19.3241 12.7449 19.3304 12.7285C19.3336 12.7202 19.3387 12.7096 19.3464 12.6983C19.3542 12.687 19.3632 12.6768 19.3726 12.6684L20.0415 13.4116C20.2533 13.221 20.327 12.9657 20.327 12.728H19.327ZM19.3535 12.6864C19.3636 12.6763 19.3746 12.6678 19.3855 12.6611C19.3964 12.6544 19.4055 12.6506 19.4115 12.6485C19.4228 12.6446 19.42 12.648 19.395 12.648V13.648C19.6177 13.648 19.8667 13.5875 20.0606 13.3936L19.3535 12.6864ZM19.395 12.648H15.735V13.648H19.395V12.648ZM15.235 13.148V16.544H16.235V13.148H15.235ZM15.235 16.544C15.235 16.6004 15.2289 16.6318 15.2252 16.6448C15.2219 16.6564 15.223 16.6454 15.239 16.6264C15.2468 16.6172 15.2564 16.6082 15.2673 16.6005C15.2781 16.5928 15.2879 16.588 15.2949 16.5852C15.3086 16.5798 15.3068 16.584 15.279 16.584V17.584C15.5323 17.584 15.8059 17.505 16.003 17.2716C16.1865 17.0544 16.235 16.7824 16.235 16.544H15.235Z" fill="#E9E9E9" mask="url(#path-2-outside-1_4366_730)"/>
</svg>
