<svg width="25" height="25" viewBox="0 0 25 25" fill="none" xmlns="http://www.w3.org/2000/svg">
<circle cx="12.5" cy="12.5" r="12.5" fill="#815524"/>
<mask id="path-2-outside-1_4366_731" maskUnits="userSpaceOnUse" x="5" y="7" width="16" height="11" fill="black">
<rect fill="white" x="5" y="7" width="16" height="11"/>
<path d="M6.512 17.084C6.36 17.084 6.244 17.044 6.164 16.964C6.084 16.876 6.044 16.752 6.044 16.592V8.96C6.044 8.8 6.084 8.676 6.164 8.588C6.244 8.5 6.348 8.456 6.476 8.456C6.604 8.456 6.696 8.48 6.752 8.528C6.816 8.568 6.888 8.644 6.968 8.756L12.2 15.728H11.912V8.936C11.912 8.784 11.952 8.668 12.032 8.588C12.112 8.5 12.228 8.456 12.38 8.456C12.524 8.456 12.632 8.5 12.704 8.588C12.784 8.668 12.824 8.784 12.824 8.936V16.604C12.824 16.756 12.788 16.876 12.716 16.964C12.652 17.044 12.556 17.084 12.428 17.084C12.308 17.084 12.212 17.06 12.14 17.012C12.068 16.964 11.992 16.888 11.912 16.784L6.692 9.812H6.968V16.592C6.968 16.752 6.928 16.876 6.848 16.964C6.768 17.044 6.656 17.084 6.512 17.084ZM15.4548 17.084C15.2868 17.084 15.1548 17.04 15.0588 16.952C14.9708 16.856 14.9268 16.72 14.9268 16.544V9.08C14.9268 8.904 14.9708 8.772 15.0588 8.684C15.1548 8.588 15.2908 8.54 15.4668 8.54H19.8228C19.9588 8.54 20.0628 8.576 20.1348 8.648C20.2068 8.72 20.2428 8.82 20.2428 8.948C20.2428 9.084 20.2068 9.188 20.1348 9.26C20.0628 9.332 19.9588 9.368 19.8228 9.368H15.9108V12.32H19.5708C19.7068 12.32 19.8108 12.356 19.8828 12.428C19.9628 12.5 20.0028 12.6 20.0028 12.728C20.0028 12.864 19.9628 12.968 19.8828 13.04C19.8108 13.112 19.7068 13.148 19.5708 13.148H15.9108V16.544C15.9108 16.904 15.7588 17.084 15.4548 17.084Z"/>
</mask>
<path d="M6.512 17.084C6.36 17.084 6.244 17.044 6.164 16.964C6.084 16.876 6.044 16.752 6.044 16.592V8.96C6.044 8.8 6.084 8.676 6.164 8.588C6.244 8.5 6.348 8.456 6.476 8.456C6.604 8.456 6.696 8.48 6.752 8.528C6.816 8.568 6.888 8.644 6.968 8.756L12.2 15.728H11.912V8.936C11.912 8.784 11.952 8.668 12.032 8.588C12.112 8.5 12.228 8.456 12.38 8.456C12.524 8.456 12.632 8.5 12.704 8.588C12.784 8.668 12.824 8.784 12.824 8.936V16.604C12.824 16.756 12.788 16.876 12.716 16.964C12.652 17.044 12.556 17.084 12.428 17.084C12.308 17.084 12.212 17.06 12.14 17.012C12.068 16.964 11.992 16.888 11.912 16.784L6.692 9.812H6.968V16.592C6.968 16.752 6.928 16.876 6.848 16.964C6.768 17.044 6.656 17.084 6.512 17.084ZM15.4548 17.084C15.2868 17.084 15.1548 17.04 15.0588 16.952C14.9708 16.856 14.9268 16.72 14.9268 16.544V9.08C14.9268 8.904 14.9708 8.772 15.0588 8.684C15.1548 8.588 15.2908 8.54 15.4668 8.54H19.8228C19.9588 8.54 20.0628 8.576 20.1348 8.648C20.2068 8.72 20.2428 8.82 20.2428 8.948C20.2428 9.084 20.2068 9.188 20.1348 9.26C20.0628 9.332 19.9588 9.368 19.8228 9.368H15.9108V12.32H19.5708C19.7068 12.32 19.8108 12.356 19.8828 12.428C19.9628 12.5 20.0028 12.6 20.0028 12.728C20.0028 12.864 19.9628 12.968 19.8828 13.04C19.8108 13.112 19.7068 13.148 19.5708 13.148H15.9108V16.544C15.9108 16.904 15.7588 17.084 15.4548 17.084Z" fill="#E9E9E9"/>
<path d="M6.164 16.964L5.79403 17.3003L5.80203 17.3091L5.81045 17.3176L6.164 16.964ZM6.164 8.588L5.79403 8.25166H5.79403L6.164 8.588ZM6.752 8.528L6.4266 8.90763L6.45514 8.93208L6.487 8.952L6.752 8.528ZM6.968 8.756L6.56102 9.0467L6.56808 9.05611L6.968 8.756ZM12.2 15.728V16.228H13.2003L12.5999 15.4279L12.2 15.728ZM11.912 15.728H11.412V16.228H11.912V15.728ZM12.032 8.588L12.3856 8.94155L12.394 8.93314L12.402 8.92434L12.032 8.588ZM12.704 8.588L12.317 8.90462L12.3328 8.92392L12.3504 8.94155L12.704 8.588ZM12.716 16.964L12.329 16.6474L12.3256 16.6517L12.716 16.964ZM12.14 17.012L11.8627 17.428L12.14 17.012ZM11.912 16.784L11.5117 17.0837L11.5157 17.0889L11.912 16.784ZM6.692 9.812V9.312H5.69303L6.29175 10.1117L6.692 9.812ZM6.968 9.812H7.468V9.312H6.968V9.812ZM6.848 16.964L7.20155 17.3176L7.20997 17.3091L7.21797 17.3003L6.848 16.964ZM6.512 16.584C6.47875 16.584 6.46874 16.5795 6.474 16.5813C6.47696 16.5823 6.48339 16.5849 6.49183 16.5901C6.50039 16.5953 6.50927 16.6022 6.51755 16.6104L5.81045 17.3176C6.01287 17.52 6.27432 17.584 6.512 17.584V16.584ZM6.53397 16.6277C6.53957 16.6338 6.54377 16.6399 6.54663 16.645C6.54942 16.6499 6.55017 16.6525 6.54985 16.6515C6.54902 16.6489 6.544 16.6313 6.544 16.592H5.544C5.544 16.8328 5.60505 17.0925 5.79403 17.3003L6.53397 16.6277ZM6.544 16.592V8.96H5.544V16.592H6.544ZM6.544 8.96C6.544 8.92069 6.54902 8.9031 6.54985 8.9005C6.55017 8.89951 6.54942 8.90211 6.54663 8.90705C6.54377 8.91211 6.53957 8.91818 6.53397 8.92434L5.79403 8.25166C5.60505 8.45955 5.544 8.71923 5.544 8.96H6.544ZM6.53397 8.92434C6.52791 8.931 6.51504 8.94178 6.49682 8.94948C6.47948 8.95682 6.47003 8.956 6.476 8.956V7.956C6.21919 7.956 5.97661 8.05082 5.79403 8.25166L6.53397 8.92434ZM6.476 8.956C6.51107 8.956 6.5214 8.95953 6.51479 8.95781C6.50784 8.956 6.4704 8.94517 6.4266 8.90763L7.0774 8.14837C6.88452 7.98305 6.64357 7.956 6.476 7.956V8.956ZM6.487 8.952C6.47224 8.94278 6.47382 8.94071 6.49102 8.95887C6.50716 8.9759 6.53062 9.0039 6.56113 9.04662L7.37487 8.46538C7.28294 8.33669 7.16504 8.19652 7.017 8.104L6.487 8.952ZM6.56808 9.05611L11.8001 16.0281L12.5999 15.4279L7.36792 8.45589L6.56808 9.05611ZM12.2 15.228H11.912V16.228H12.2V15.228ZM12.412 15.728V8.936H11.412V15.728H12.412ZM12.412 8.936C12.412 8.90275 12.4165 8.89274 12.4147 8.89799C12.4137 8.90096 12.4111 8.90739 12.4059 8.91583C12.4007 8.92439 12.3938 8.93327 12.3856 8.94155L11.6784 8.23445C11.476 8.43687 11.412 8.69832 11.412 8.936H12.412ZM12.402 8.92434C12.3952 8.93181 12.387 8.93892 12.3781 8.94497C12.3691 8.95096 12.3614 8.95456 12.3563 8.9565C12.3465 8.96022 12.3514 8.956 12.38 8.956V7.956C12.1288 7.956 11.8616 8.03211 11.662 8.25166L12.402 8.92434ZM12.38 8.956C12.402 8.956 12.3985 8.95945 12.3804 8.95205C12.3711 8.94826 12.3596 8.94228 12.3476 8.93345C12.3355 8.92458 12.3252 8.91459 12.317 8.90462L13.091 8.27138C12.8996 8.03742 12.6305 7.956 12.38 7.956V8.956ZM12.3504 8.94155C12.3422 8.93327 12.3353 8.92439 12.3301 8.91583C12.3249 8.90739 12.3223 8.90096 12.3213 8.89799C12.3195 8.89274 12.324 8.90275 12.324 8.936H13.324C13.324 8.69832 13.26 8.43687 13.0576 8.23445L12.3504 8.94155ZM12.324 8.936V16.604H13.324V8.936H12.324ZM12.324 16.604C12.324 16.6413 12.3195 16.6596 12.3181 16.6643C12.3171 16.6676 12.3192 16.6594 12.329 16.6474L13.103 17.2806C13.2694 17.0772 13.324 16.8324 13.324 16.604H12.324ZM12.3256 16.6517C12.3469 16.625 12.3754 16.6043 12.4037 16.5925C12.4289 16.5819 12.4408 16.584 12.428 16.584V17.584C12.6664 17.584 12.9243 17.504 13.1064 17.2763L12.3256 16.6517ZM12.428 16.584C12.4006 16.584 12.3883 16.5812 12.3873 16.5809C12.387 16.5809 12.3994 16.584 12.4174 16.596L11.8627 17.428C12.0429 17.5482 12.2462 17.584 12.428 17.584V16.584ZM12.4174 16.596C12.4079 16.5897 12.3704 16.5598 12.3083 16.4791L11.5157 17.0889C11.6136 17.2162 11.7281 17.3383 11.8627 17.428L12.4174 16.596ZM12.3122 16.4843L7.09225 9.51233L6.29175 10.1117L11.5118 17.0837L12.3122 16.4843ZM6.692 10.312H6.968V9.312H6.692V10.312ZM6.468 9.812V16.592H7.468V9.812H6.468ZM6.468 16.592C6.468 16.6313 6.46298 16.6489 6.46215 16.6515C6.46183 16.6525 6.46258 16.6499 6.46537 16.645C6.46823 16.6399 6.47243 16.6338 6.47803 16.6277L7.21797 17.3003C7.40696 17.0925 7.468 16.8328 7.468 16.592H6.468ZM6.49445 16.6104C6.50122 16.6037 6.50893 16.5975 6.517 16.5925C6.525 16.5875 6.53167 16.5846 6.53583 16.5831C6.54383 16.5803 6.5384 16.584 6.512 16.584V17.584C6.75063 17.584 7.00397 17.5151 7.20155 17.3176L6.49445 16.6104ZM15.0588 16.952L14.6902 17.2899L14.7049 17.3059L14.721 17.3206L15.0588 16.952ZM15.0588 8.684L15.4124 9.03755V9.03755L15.0588 8.684ZM15.9108 9.368V8.868H15.4108V9.368H15.9108ZM15.9108 12.32H15.4108V12.82H15.9108V12.32ZM19.8828 12.428L19.5293 12.7816L19.5386 12.7909L19.5483 12.7996L19.8828 12.428ZM19.8828 13.04L19.5483 12.6684L19.5386 12.6771L19.5293 12.6864L19.8828 13.04ZM15.9108 13.148V12.648H15.4108V13.148H15.9108ZM15.4548 16.584C15.4138 16.584 15.3936 16.5786 15.3879 16.5767C15.384 16.5753 15.3894 16.5767 15.3967 16.5834L14.721 17.3206C14.9335 17.5154 15.1991 17.584 15.4548 17.584V16.584ZM15.4274 16.6141C15.4365 16.624 15.4376 16.6305 15.4355 16.6241C15.4328 16.6158 15.4268 16.5913 15.4268 16.544H14.4268C14.4268 16.8005 14.4917 17.0733 14.6902 17.2899L15.4274 16.6141ZM15.4268 16.544V9.08H14.4268V16.544H15.4268ZM15.4268 9.08C15.4268 9.03217 15.433 9.01068 15.4342 9.00711C15.4346 9.00583 15.4336 9.0092 15.4298 9.0155C15.4259 9.02197 15.4202 9.02977 15.4124 9.03755L14.7053 8.33045C14.4904 8.54529 14.4268 8.82693 14.4268 9.08H15.4268ZM15.4124 9.03755C15.4091 9.04083 15.4054 9.0437 15.402 9.04582C15.3987 9.04788 15.3973 9.04816 15.3992 9.04749C15.4035 9.046 15.4234 9.04 15.4668 9.04V8.04C15.1992 8.04 14.9205 8.1152 14.7053 8.33045L15.4124 9.03755ZM15.4668 9.04H19.8228V8.04H15.4668V9.04ZM19.8228 9.04C19.8478 9.04 19.8506 9.04342 19.8393 9.03949C19.8333 9.03742 19.8241 9.03356 19.8133 9.02691C19.8024 9.02019 19.7914 9.01167 19.7813 9.00155L20.4884 8.29445C20.2945 8.10054 20.0455 8.04 19.8228 8.04V9.04ZM19.7813 9.00155C19.7629 8.98322 19.7512 8.9625 19.7454 8.94636C19.7403 8.93221 19.7428 8.93028 19.7428 8.948H20.7428C20.7428 8.72333 20.6768 8.48289 20.4884 8.29445L19.7813 9.00155ZM19.7428 8.948C19.7428 8.97295 19.7394 8.97578 19.7433 8.96444C19.7454 8.95845 19.7493 8.94932 19.7559 8.93849C19.7626 8.92754 19.7711 8.91656 19.7813 8.90645L20.4884 9.61355C20.6823 9.41964 20.7428 9.17065 20.7428 8.948H19.7428ZM19.7813 8.90645C19.7914 8.89633 19.8024 8.88781 19.8133 8.88109C19.8241 8.87444 19.8333 8.87058 19.8393 8.86851C19.8506 8.86458 19.8478 8.868 19.8228 8.868V9.868C20.0455 9.868 20.2945 9.80746 20.4884 9.61355L19.7813 8.90645ZM19.8228 8.868H15.9108V9.868H19.8228V8.868ZM15.4108 9.368V12.32H16.4108V9.368H15.4108ZM15.9108 12.82H19.5708V11.82H15.9108V12.82ZM19.5708 12.82C19.5958 12.82 19.5986 12.8234 19.5873 12.8195C19.5813 12.8174 19.5721 12.8136 19.5613 12.8069C19.5504 12.8002 19.5394 12.7917 19.5293 12.7816L20.2364 12.0744C20.0425 11.8805 19.7935 11.82 19.5708 11.82V12.82ZM19.5483 12.7996C19.5314 12.7844 19.517 12.7637 19.5086 12.7427C19.5009 12.7236 19.5028 12.7159 19.5028 12.728H20.5028C20.5028 12.4875 20.4226 12.2411 20.2173 12.0564L19.5483 12.7996ZM19.5028 12.728C19.5028 12.7478 19.4998 12.7449 19.5061 12.7285C19.5094 12.7202 19.5145 12.7096 19.5222 12.6983C19.53 12.687 19.5389 12.6768 19.5483 12.6684L20.2173 13.4116C20.4291 13.221 20.5028 12.9657 20.5028 12.728H19.5028ZM19.5293 12.6864C19.5394 12.6763 19.5504 12.6678 19.5613 12.6611C19.5721 12.6544 19.5813 12.6506 19.5873 12.6485C19.5986 12.6446 19.5958 12.648 19.5708 12.648V13.648C19.7935 13.648 20.0425 13.5875 20.2364 13.3936L19.5293 12.6864ZM19.5708 12.648H15.9108V13.648H19.5708V12.648ZM15.4108 13.148V16.544H16.4108V13.148H15.4108ZM15.4108 16.544C15.4108 16.6004 15.4047 16.6318 15.401 16.6448C15.3977 16.6564 15.3988 16.6454 15.4148 16.6264C15.4226 16.6172 15.4322 16.6082 15.4431 16.6005C15.4539 16.5928 15.4636 16.588 15.4707 16.5852C15.4844 16.5798 15.4825 16.584 15.4548 16.584V17.584C15.7081 17.584 15.9817 17.505 16.1788 17.2716C16.3623 17.0544 16.4108 16.7824 16.4108 16.544H15.4108Z" fill="#E9E9E9" mask="url(#path-2-outside-1_4366_731)"/>
</svg>
