<svg width="25" height="26" viewBox="0 0 25 26" fill="none" xmlns="http://www.w3.org/2000/svg">
<circle cx="12.5" cy="12.5" r="12.5" fill="#275331"/>
<mask id="path-2-outside-1_4366_728" maskUnits="userSpaceOnUse" x="7" y="8" width="10" height="11" fill="black">
<rect fill="white" x="7" y="8" width="10" height="11"/>
<path d="M12.14 18.084C11.988 18.084 11.864 18.048 11.768 17.976C11.672 17.904 11.596 17.796 11.54 17.652L8.24 10.104C8.184 9.968 8.168 9.856 8.192 9.768C8.216 9.672 8.268 9.596 8.348 9.54C8.436 9.484 8.536 9.456 8.648 9.456C8.8 9.456 8.912 9.492 8.984 9.564C9.064 9.628 9.128 9.724 9.176 9.852L12.344 17.208H11.96L15.116 9.84C15.172 9.72 15.24 9.628 15.32 9.564C15.4 9.492 15.512 9.456 15.656 9.456C15.768 9.456 15.86 9.484 15.932 9.54C16.012 9.596 16.06 9.672 16.076 9.768C16.1 9.864 16.084 9.976 16.028 10.104L12.728 17.652C12.672 17.796 12.596 17.904 12.5 17.976C12.412 18.048 12.292 18.084 12.14 18.084Z"/>
</mask>
<path d="M12.14 18.084C11.988 18.084 11.864 18.048 11.768 17.976C11.672 17.904 11.596 17.796 11.54 17.652L8.24 10.104C8.184 9.968 8.168 9.856 8.192 9.768C8.216 9.672 8.268 9.596 8.348 9.54C8.436 9.484 8.536 9.456 8.648 9.456C8.8 9.456 8.912 9.492 8.984 9.564C9.064 9.628 9.128 9.724 9.176 9.852L12.344 17.208H11.96L15.116 9.84C15.172 9.72 15.24 9.628 15.32 9.564C15.4 9.492 15.512 9.456 15.656 9.456C15.768 9.456 15.86 9.484 15.932 9.54C16.012 9.596 16.06 9.672 16.076 9.768C16.1 9.864 16.084 9.976 16.028 10.104L12.728 17.652C12.672 17.796 12.596 17.904 12.5 17.976C12.412 18.048 12.292 18.084 12.14 18.084Z" fill="#E9E9E9"/>
<path d="M11.768 17.976L11.468 18.376L11.768 17.976ZM11.54 17.652L12.006 17.4708L12.0023 17.4612L11.9981 17.4517L11.54 17.652ZM8.24 10.104L7.77755 10.2944L7.78187 10.3043L8.24 10.104ZM8.192 9.768L8.67449 9.89959L8.67707 9.88927L8.192 9.768ZM8.348 9.54L8.07956 9.11817L8.07028 9.12407L8.06127 9.13038L8.348 9.54ZM8.984 9.564L8.63045 9.91755L8.65003 9.93714L8.67165 9.95444L8.984 9.564ZM9.176 9.852L8.70784 10.0276L8.71204 10.0388L8.71678 10.0498L9.176 9.852ZM12.344 17.208V17.708H13.1037L12.8032 17.0102L12.344 17.208ZM11.96 17.208L11.5004 17.0111L11.2019 17.708H11.96V17.208ZM15.116 9.84L14.6629 9.62856L14.6595 9.63579L14.6564 9.64313L15.116 9.84ZM15.32 9.564L15.6323 9.95443L15.6437 9.94536L15.6545 9.93565L15.32 9.564ZM15.932 9.54L15.625 9.93468L15.635 9.9424L15.6453 9.94961L15.932 9.54ZM16.076 9.768L15.5828 9.8502L15.5861 9.8699L15.5909 9.88927L16.076 9.768ZM16.028 10.104L15.5699 9.90359L15.5699 9.9037L16.028 10.104ZM12.728 17.652L12.2699 17.4517L12.2657 17.4612L12.262 17.4708L12.728 17.652ZM12.5 17.976L12.2 17.576L12.1916 17.5823L12.1834 17.589L12.5 17.976ZM12.14 17.584C12.1031 17.584 12.0819 17.5796 12.0724 17.5768C12.0639 17.5744 12.0642 17.5731 12.068 17.576L11.468 18.376C11.6713 18.5285 11.909 18.584 12.14 18.584V17.584ZM12.068 17.576C12.0653 17.574 12.0378 17.5524 12.006 17.4708L11.074 17.8332C11.1542 18.0396 11.2787 18.234 11.468 18.376L12.068 17.576ZM11.9981 17.4517L8.69813 9.9037L7.78187 10.3043L11.0819 17.8523L11.9981 17.4517ZM8.70234 9.91362C8.69427 9.89404 8.68902 9.87861 8.68567 9.86709C8.68232 9.85554 8.68123 9.8491 8.68097 9.84729C8.68038 9.8431 8.68411 9.8639 8.67438 9.89956L7.70962 9.63644C7.64352 9.8788 7.70345 10.1142 7.77766 10.2944L8.70234 9.91362ZM8.67707 9.88927C8.67576 9.89452 8.67158 9.90683 8.66165 9.92134C8.65167 9.93594 8.64101 9.94522 8.63473 9.94962L8.06127 9.13038C7.88114 9.25647 7.75972 9.43557 7.70693 9.64673L8.67707 9.88927ZM8.61644 9.96183C8.61825 9.96068 8.62377 9.956 8.648 9.956V8.956C8.44823 8.956 8.25375 9.00732 8.07956 9.11817L8.61644 9.96183ZM8.648 9.956C8.6864 9.956 8.69845 9.96077 8.693 9.95901C8.68962 9.95793 8.68106 9.9548 8.6694 9.94796C8.6575 9.94097 8.64389 9.931 8.63045 9.91755L9.33755 9.21045C9.13425 9.00715 8.86791 8.956 8.648 8.956V9.956ZM8.67165 9.95444C8.66155 9.94635 8.68122 9.95658 8.70784 10.0276L9.64416 9.67644C9.57478 9.49142 9.46645 9.30964 9.29635 9.17356L8.67165 9.95444ZM8.71678 10.0498L11.8848 17.4058L12.8032 17.0102L9.63522 9.65423L8.71678 10.0498ZM12.344 16.708H11.96V17.708H12.344V16.708ZM12.4196 17.4049L15.5756 10.0369L14.6564 9.64313L11.5004 17.0111L12.4196 17.4049ZM15.5691 10.0514C15.6018 9.98145 15.6273 9.95845 15.6323 9.95443L15.0077 9.17356C14.8527 9.29755 14.7422 9.45855 14.6629 9.62856L15.5691 10.0514ZM15.6545 9.93565C15.6465 9.94282 15.6384 9.94843 15.6311 9.95254C15.6239 9.95658 15.6188 9.95843 15.617 9.95901C15.6139 9.96 15.6247 9.956 15.656 9.956V8.956C15.4309 8.956 15.1846 9.01318 14.9855 9.19235L15.6545 9.93565ZM15.656 9.956C15.6706 9.956 15.6716 9.95784 15.6634 9.95534C15.6542 9.95252 15.6398 9.9462 15.625 9.93468L16.239 9.14532C16.0607 9.00666 15.8532 8.956 15.656 8.956V9.956ZM15.6453 9.94961C15.6356 9.94288 15.6196 9.92877 15.6053 9.906C15.5909 9.88319 15.5848 9.86239 15.5828 9.8502L16.5692 9.6858C16.531 9.45686 16.4083 9.26308 16.2187 9.13038L15.6453 9.94961ZM15.5909 9.88927C15.5852 9.86617 15.5872 9.85222 15.587 9.85329C15.5867 9.85556 15.5839 9.87168 15.5699 9.90359L16.4861 10.3044C16.5686 10.1158 16.621 9.88634 16.5611 9.64673L15.5909 9.88927ZM15.5699 9.9037L12.2699 17.4517L13.1861 17.8523L16.4861 10.3043L15.5699 9.9037ZM12.262 17.4708C12.2302 17.5524 12.2027 17.574 12.2 17.576L12.8 18.376C12.9893 18.234 13.1138 18.0396 13.194 17.8332L12.262 17.4708ZM12.1834 17.589C12.1954 17.5792 12.2036 17.5771 12.2003 17.5781C12.1956 17.5795 12.1773 17.584 12.14 17.584V18.584C12.3684 18.584 12.6132 18.5294 12.8166 18.363L12.1834 17.589Z" fill="#E9E9E9" mask="url(#path-2-outside-1_4366_728)"/>
</svg>
