<svg width="25" height="25" viewBox="0 0 25 25" fill="none" xmlns="http://www.w3.org/2000/svg">
<circle cx="12.5" cy="12.5" r="12.5" fill="#E25050"/>
<mask id="path-2-outside-1_4366_729" maskUnits="userSpaceOnUse" x="3" y="7" width="18" height="11" fill="black">
<rect fill="white" x="3" y="7" width="18" height="11"/>
<path d="M8.14 17.084C7.988 17.084 7.864 17.048 7.768 16.976C7.672 16.904 7.596 16.796 7.54 16.652L4.24 9.104C4.184 8.968 4.168 8.856 4.192 8.768C4.216 8.672 4.268 8.596 4.348 8.54C4.436 8.484 4.536 8.456 4.648 8.456C4.8 8.456 4.912 8.492 4.984 8.564C5.064 8.628 5.128 8.724 5.176 8.852L8.344 16.208H7.96L11.116 8.84C11.172 8.72 11.24 8.628 11.32 8.564C11.4 8.492 11.512 8.456 11.656 8.456C11.768 8.456 11.86 8.484 11.932 8.54C12.012 8.596 12.06 8.672 12.076 8.768C12.1 8.864 12.084 8.976 12.028 9.104L8.728 16.652C8.672 16.796 8.596 16.904 8.5 16.976C8.412 17.048 8.292 17.084 8.14 17.084ZM16.9939 17.108C16.0899 17.108 15.3259 16.936 14.7019 16.592C14.0859 16.248 13.6179 15.752 13.2979 15.104C12.9779 14.456 12.8179 13.68 12.8179 12.776C12.8179 12.104 12.9059 11.5 13.0819 10.964C13.2659 10.428 13.5299 9.976 13.8739 9.608C14.2259 9.232 14.6499 8.944 15.1459 8.744C15.6499 8.536 16.2179 8.432 16.8499 8.432C17.3539 8.432 17.8419 8.504 18.3139 8.648C18.7859 8.784 19.2059 9.004 19.5739 9.308C19.6699 9.38 19.7299 9.46 19.7539 9.548C19.7779 9.636 19.7739 9.724 19.7419 9.812C19.7179 9.9 19.6739 9.976 19.6099 10.04C19.5539 10.096 19.4779 10.128 19.3819 10.136C19.2939 10.144 19.2019 10.116 19.1059 10.052C18.7779 9.796 18.4299 9.612 18.0619 9.5C17.6939 9.38 17.2859 9.32 16.8379 9.32C16.1979 9.32 15.6539 9.456 15.2059 9.728C14.7659 10 14.4299 10.392 14.1979 10.904C13.9739 11.416 13.8619 12.04 13.8619 12.776C13.8619 13.896 14.1219 14.752 14.6419 15.344C15.1699 15.936 15.9619 16.232 17.0179 16.232C17.4019 16.232 17.7779 16.196 18.1459 16.124C18.5139 16.044 18.8619 15.936 19.1899 15.8L18.9739 16.364V13.376H17.2579C17.1139 13.376 17.0059 13.34 16.9339 13.268C16.8619 13.196 16.8259 13.1 16.8259 12.98C16.8259 12.852 16.8619 12.756 16.9339 12.692C17.0059 12.628 17.1139 12.596 17.2579 12.596H19.4059C19.5419 12.596 19.6459 12.632 19.7179 12.704C19.7899 12.776 19.8259 12.88 19.8259 13.016V16.148C19.8259 16.268 19.8059 16.368 19.7659 16.448C19.7259 16.528 19.6579 16.588 19.5619 16.628C19.2259 16.764 18.8219 16.88 18.3499 16.976C17.8859 17.064 17.4339 17.108 16.9939 17.108Z"/>
</mask>
<path d="M8.14 17.084C7.988 17.084 7.864 17.048 7.768 16.976C7.672 16.904 7.596 16.796 7.54 16.652L4.24 9.104C4.184 8.968 4.168 8.856 4.192 8.768C4.216 8.672 4.268 8.596 4.348 8.54C4.436 8.484 4.536 8.456 4.648 8.456C4.8 8.456 4.912 8.492 4.984 8.564C5.064 8.628 5.128 8.724 5.176 8.852L8.344 16.208H7.96L11.116 8.84C11.172 8.72 11.24 8.628 11.32 8.564C11.4 8.492 11.512 8.456 11.656 8.456C11.768 8.456 11.86 8.484 11.932 8.54C12.012 8.596 12.06 8.672 12.076 8.768C12.1 8.864 12.084 8.976 12.028 9.104L8.728 16.652C8.672 16.796 8.596 16.904 8.5 16.976C8.412 17.048 8.292 17.084 8.14 17.084ZM16.9939 17.108C16.0899 17.108 15.3259 16.936 14.7019 16.592C14.0859 16.248 13.6179 15.752 13.2979 15.104C12.9779 14.456 12.8179 13.68 12.8179 12.776C12.8179 12.104 12.9059 11.5 13.0819 10.964C13.2659 10.428 13.5299 9.976 13.8739 9.608C14.2259 9.232 14.6499 8.944 15.1459 8.744C15.6499 8.536 16.2179 8.432 16.8499 8.432C17.3539 8.432 17.8419 8.504 18.3139 8.648C18.7859 8.784 19.2059 9.004 19.5739 9.308C19.6699 9.38 19.7299 9.46 19.7539 9.548C19.7779 9.636 19.7739 9.724 19.7419 9.812C19.7179 9.9 19.6739 9.976 19.6099 10.04C19.5539 10.096 19.4779 10.128 19.3819 10.136C19.2939 10.144 19.2019 10.116 19.1059 10.052C18.7779 9.796 18.4299 9.612 18.0619 9.5C17.6939 9.38 17.2859 9.32 16.8379 9.32C16.1979 9.32 15.6539 9.456 15.2059 9.728C14.7659 10 14.4299 10.392 14.1979 10.904C13.9739 11.416 13.8619 12.04 13.8619 12.776C13.8619 13.896 14.1219 14.752 14.6419 15.344C15.1699 15.936 15.9619 16.232 17.0179 16.232C17.4019 16.232 17.7779 16.196 18.1459 16.124C18.5139 16.044 18.8619 15.936 19.1899 15.8L18.9739 16.364V13.376H17.2579C17.1139 13.376 17.0059 13.34 16.9339 13.268C16.8619 13.196 16.8259 13.1 16.8259 12.98C16.8259 12.852 16.8619 12.756 16.9339 12.692C17.0059 12.628 17.1139 12.596 17.2579 12.596H19.4059C19.5419 12.596 19.6459 12.632 19.7179 12.704C19.7899 12.776 19.8259 12.88 19.8259 13.016V16.148C19.8259 16.268 19.8059 16.368 19.7659 16.448C19.7259 16.528 19.6579 16.588 19.5619 16.628C19.2259 16.764 18.8219 16.88 18.3499 16.976C17.8859 17.064 17.4339 17.108 16.9939 17.108Z" fill="#E9E9E9"/>
<path d="M7.768 16.976L7.468 17.376L7.768 16.976ZM7.54 16.652L8.006 16.4708L8.00226 16.4612L7.99813 16.4517L7.54 16.652ZM4.24 9.104L3.77755 9.29442L3.78187 9.30429L4.24 9.104ZM4.192 8.768L4.67449 8.89959L4.67707 8.88927L4.192 8.768ZM4.348 8.54L4.07956 8.11817L4.07028 8.12407L4.06127 8.13038L4.348 8.54ZM4.984 8.564L4.63045 8.91755L4.65003 8.93714L4.67165 8.95444L4.984 8.564ZM5.176 8.852L4.70784 9.02756L4.71204 9.03877L4.71678 9.04977L5.176 8.852ZM8.344 16.208V16.708H9.10373L8.80322 16.0102L8.344 16.208ZM7.96 16.208L7.50039 16.0111L7.20189 16.708H7.96V16.208ZM11.116 8.84L10.6629 8.62856L10.6595 8.63579L10.6564 8.64313L11.116 8.84ZM11.32 8.564L11.6323 8.95443L11.6437 8.94536L11.6545 8.93565L11.32 8.564ZM11.932 8.54L11.625 8.93468L11.635 8.9424L11.6453 8.94961L11.932 8.54ZM12.076 8.768L11.5828 8.8502L11.5861 8.8699L11.5909 8.88927L12.076 8.768ZM12.028 9.104L11.5699 8.90359L11.5699 8.9037L12.028 9.104ZM8.728 16.652L8.26987 16.4517L8.26574 16.4612L8.262 16.4708L8.728 16.652ZM8.5 16.976L8.2 16.576L8.19155 16.5823L8.18338 16.589L8.5 16.976ZM8.14 16.584C8.10306 16.584 8.08192 16.5796 8.07241 16.5768C8.06391 16.5744 8.06419 16.5731 8.068 16.576L7.468 17.376C7.67128 17.5285 7.90897 17.584 8.14 17.584V16.584ZM8.068 16.576C8.06532 16.574 8.03776 16.5524 8.006 16.4708L7.074 16.8332C7.15424 17.0396 7.27868 17.234 7.468 17.376L8.068 16.576ZM7.99813 16.4517L4.69813 8.9037L3.78187 9.30429L7.08187 16.8523L7.99813 16.4517ZM4.70234 8.91362C4.69427 8.89404 4.68902 8.87861 4.68567 8.86709C4.68232 8.85554 4.68123 8.8491 4.68097 8.84729C4.68038 8.8431 4.68411 8.8639 4.67438 8.89956L3.70962 8.63644C3.64352 8.8788 3.70345 9.11416 3.77766 9.29437L4.70234 8.91362ZM4.67707 8.88927C4.67576 8.89452 4.67158 8.90683 4.66165 8.92134C4.65167 8.93594 4.64101 8.94522 4.63473 8.94962L4.06127 8.13038C3.88114 8.25647 3.75972 8.43557 3.70693 8.64673L4.67707 8.88927ZM4.61644 8.96183C4.61825 8.96068 4.62377 8.956 4.648 8.956V7.956C4.44823 7.956 4.25375 8.00732 4.07956 8.11817L4.61644 8.96183ZM4.648 8.956C4.6864 8.956 4.69845 8.96077 4.693 8.95901C4.68962 8.95793 4.68106 8.9548 4.6694 8.94796C4.6575 8.94097 4.64389 8.931 4.63045 8.91755L5.33755 8.21045C5.13425 8.00715 4.86791 7.956 4.648 7.956V8.956ZM4.67165 8.95444C4.66155 8.94635 4.68122 8.95658 4.70784 9.02756L5.64416 8.67644C5.57478 8.49142 5.46645 8.30964 5.29635 8.17356L4.67165 8.95444ZM4.71678 9.04977L7.88478 16.4058L8.80322 16.0102L5.63522 8.65423L4.71678 9.04977ZM8.344 15.708H7.96V16.708H8.344V15.708ZM8.41961 16.4049L11.5756 9.03687L10.6564 8.64313L7.50039 16.0111L8.41961 16.4049ZM11.5691 9.05144C11.6018 8.98145 11.6273 8.95845 11.6323 8.95443L11.0077 8.17356C10.8527 8.29755 10.7422 8.45855 10.6629 8.62856L11.5691 9.05144ZM11.6545 8.93565C11.6465 8.94282 11.6384 8.94843 11.6311 8.95254C11.6239 8.95658 11.6188 8.95843 11.617 8.95901C11.6139 8.96 11.6247 8.956 11.656 8.956V7.956C11.4309 7.956 11.1846 8.01318 10.9855 8.19235L11.6545 8.93565ZM11.656 8.956C11.6706 8.956 11.6716 8.95784 11.6634 8.95534C11.6542 8.95252 11.6398 8.9462 11.625 8.93468L12.239 8.14532C12.0607 8.00666 11.8532 7.956 11.656 7.956V8.956ZM11.6453 8.94961C11.6356 8.94288 11.6196 8.92877 11.6053 8.906C11.5909 8.88319 11.5848 8.86239 11.5828 8.8502L12.5692 8.6858C12.531 8.45686 12.4083 8.26308 12.2187 8.13038L11.6453 8.94961ZM11.5909 8.88927C11.5852 8.86617 11.5872 8.85222 11.587 8.85329C11.5867 8.85556 11.5839 8.87168 11.5699 8.90359L12.4861 9.30441C12.5686 9.11584 12.621 8.88634 12.5611 8.64673L11.5909 8.88927ZM11.5699 8.9037L8.26987 16.4517L9.18613 16.8523L12.4861 9.30429L11.5699 8.9037ZM8.262 16.4708C8.23025 16.5524 8.20268 16.574 8.2 16.576L8.8 17.376C8.98932 17.234 9.11376 17.0396 9.194 16.8332L8.262 16.4708ZM8.18338 16.589C8.19537 16.5792 8.20364 16.5771 8.20033 16.5781C8.19562 16.5795 8.17732 16.584 8.14 16.584V17.584C8.36843 17.584 8.61316 17.5294 8.81662 17.363L8.18338 16.589ZM14.7019 16.592L14.4581 17.0285L14.4605 17.0299L14.7019 16.592ZM13.0819 10.964L12.609 10.8016L12.6069 10.808L13.0819 10.964ZM13.8739 9.608L13.5089 9.26629L13.5087 9.26656L13.8739 9.608ZM15.1459 8.744L15.3329 9.20774L15.3367 9.20619L15.1459 8.744ZM18.3139 8.648L18.168 9.1263L18.1755 9.12845L18.3139 8.648ZM19.5739 9.308L19.2555 9.69348L19.2645 9.70096L19.2739 9.708L19.5739 9.308ZM19.7539 9.548L20.2363 9.41644V9.41644L19.7539 9.548ZM19.7419 9.812L19.272 9.64113L19.265 9.66053L19.2596 9.68044L19.7419 9.812ZM19.6099 10.04L19.2564 9.68645L19.2564 9.68645L19.6099 10.04ZM19.3819 10.136L19.3404 9.63771L19.3367 9.63805L19.3819 10.136ZM19.1059 10.052L18.7983 10.4462L18.813 10.4577L18.8286 10.468L19.1059 10.052ZM18.0619 9.5L17.9069 9.97546L17.9164 9.97834L18.0619 9.5ZM15.2059 9.728L14.9464 9.30059L14.943 9.3027L15.2059 9.728ZM14.1979 10.904L13.7425 10.6976L13.7399 10.7036L14.1979 10.904ZM14.6419 15.344L14.2663 15.674L14.2688 15.6768L14.6419 15.344ZM18.1459 16.124L18.242 16.6148L18.2522 16.6126L18.1459 16.124ZM19.1899 15.8L19.6569 15.9788L20.0729 14.8926L18.9984 15.3381L19.1899 15.8ZM18.9739 16.364H18.4739L19.4409 16.5428L18.9739 16.364ZM18.9739 13.376H19.4739V12.876H18.9739V13.376ZM16.9339 12.692L16.6018 12.3183L16.6018 12.3183L16.9339 12.692ZM19.7659 16.448L19.3187 16.2244L19.7659 16.448ZM19.5619 16.628L19.7495 17.0915L19.7542 17.0895L19.5619 16.628ZM18.3499 16.976L18.4431 17.4673L18.4496 17.466L18.3499 16.976ZM16.9939 16.608C16.1521 16.608 15.4761 16.4478 14.9433 16.1541L14.4605 17.0299C15.1758 17.4242 16.0277 17.608 16.9939 17.608V16.608ZM14.9457 16.1555C14.4204 15.8621 14.0226 15.4422 13.7463 14.8826L12.8496 15.3254C13.2133 16.0618 13.7515 16.6339 14.4582 17.0285L14.9457 16.1555ZM13.7463 14.8826C13.4677 14.3185 13.3179 13.622 13.3179 12.776H12.3179C12.3179 13.738 12.4882 14.5935 12.8496 15.3254L13.7463 14.8826ZM13.3179 12.776C13.3179 12.1472 13.4003 11.5971 13.557 11.12L12.6069 10.808C12.4115 11.4029 12.3179 12.0608 12.3179 12.776H13.3179ZM13.5548 11.1263C13.7188 10.6486 13.949 10.2599 14.2392 9.94944L13.5087 9.26656C13.1109 9.69208 12.813 10.2074 12.609 10.8017L13.5548 11.1263ZM14.2389 9.94971C14.5393 9.62891 14.9018 9.38157 15.3329 9.20772L14.959 8.28028C14.3981 8.50643 13.9126 8.83509 13.5089 9.26629L14.2389 9.94971ZM15.3367 9.20619C15.7713 9.0268 16.2731 8.932 16.8499 8.932V7.932C16.1628 7.932 15.5285 8.0452 14.9552 8.28181L15.3367 9.20619ZM16.8499 8.932C17.3056 8.932 17.7443 8.99697 18.168 9.12624L18.4598 8.16976C17.9395 8.01103 17.4023 7.932 16.8499 7.932V8.932ZM18.1755 9.12845C18.5836 9.24604 18.9419 9.43443 19.2555 9.69348L19.8924 8.92252C19.47 8.57357 18.9883 8.32196 18.4524 8.16755L18.1755 9.12845ZM19.2739 9.708C19.2913 9.72106 19.2944 9.72658 19.2909 9.722C19.2891 9.71954 19.2857 9.7146 19.282 9.70711C19.2782 9.69953 19.2745 9.69025 19.2716 9.67956L20.2363 9.41644C20.175 9.19157 20.0308 9.02561 19.8739 8.908L19.2739 9.708ZM19.2716 9.67956C19.2704 9.67514 19.269 9.66712 19.2695 9.6573C19.2699 9.6476 19.2718 9.64173 19.272 9.64113L20.2118 9.98287C20.2781 9.80053 20.2883 9.60691 20.2363 9.41644L19.2716 9.67956ZM19.2596 9.68044C19.2585 9.68443 19.2578 9.68525 19.2582 9.68448C19.2587 9.6837 19.2586 9.68425 19.2564 9.68645L19.9635 10.3936C20.0895 10.2675 20.1776 10.1148 20.2243 9.94356L19.2596 9.68044ZM19.2564 9.68645C19.276 9.66683 19.2978 9.65323 19.3169 9.64518C19.3348 9.63764 19.3445 9.63738 19.3404 9.63773L19.4235 10.6343C19.6108 10.6187 19.8068 10.5502 19.9635 10.3936L19.2564 9.68645ZM19.3367 9.63805C19.3624 9.63571 19.3823 9.63954 19.3925 9.64266C19.4015 9.64539 19.3985 9.64611 19.3833 9.63597L18.8286 10.468C18.9903 10.5758 19.1947 10.6551 19.4272 10.6339L19.3367 9.63805ZM19.4136 9.65784C19.0412 9.36717 18.6389 9.15295 18.2075 9.02166L17.9164 9.97834C18.221 10.0711 18.5147 10.2248 18.7983 10.4462L19.4136 9.65784ZM18.2169 9.02464C17.7917 8.88598 17.3305 8.82 16.8379 8.82V9.82C17.2414 9.82 17.5961 9.87402 17.9069 9.97536L18.2169 9.02464ZM16.8379 8.82C16.1267 8.82 15.4883 8.97161 14.9464 9.30061L15.4654 10.1554C15.8195 9.94039 16.2692 9.82 16.8379 9.82V8.82ZM14.943 9.3027C14.4112 9.63148 14.0118 10.1034 13.7425 10.6976L14.6534 11.1104C14.8481 10.6806 15.1207 10.3685 15.4688 10.1533L14.943 9.3027ZM13.7399 10.7036C13.4809 11.2954 13.3619 11.9918 13.3619 12.776H14.3619C14.3619 12.0882 14.4669 11.5366 14.656 11.1044L13.7399 10.7036ZM13.3619 12.776C13.3619 13.9668 13.638 14.9587 14.2663 15.674L15.0176 15.014C14.6058 14.5453 14.3619 13.8252 14.3619 12.776H13.3619ZM14.2688 15.6768C14.9204 16.4074 15.8691 16.732 17.0179 16.732V15.732C16.0548 15.732 15.4195 15.4646 15.0151 15.0112L14.2688 15.6768ZM17.0179 16.732C17.4334 16.732 17.8416 16.693 18.2419 16.6147L18.0499 15.6333C17.7143 15.699 17.3705 15.732 17.0179 15.732V16.732ZM18.2522 16.6126C18.6476 16.5266 19.0243 16.41 19.3814 16.2619L18.9984 15.3381C18.6996 15.462 18.3803 15.5614 18.0397 15.6354L18.2522 16.6126ZM18.723 15.6212L18.507 16.1852L19.4409 16.5428L19.6569 15.9788L18.723 15.6212ZM19.4739 16.364V13.376H18.4739V16.364H19.4739ZM18.9739 12.876H17.2579V13.876H18.9739V12.876ZM17.2579 12.876C17.2261 12.876 17.2186 12.8718 17.2271 12.8747C17.2318 12.8762 17.2406 12.8797 17.2519 12.8865C17.2634 12.8934 17.2757 12.9027 17.2875 12.9144L16.5804 13.6216C16.7792 13.8204 17.0369 13.876 17.2579 13.876V12.876ZM17.2875 12.9144C17.3023 12.9293 17.3142 12.9481 17.3211 12.9664C17.3274 12.9833 17.3259 12.9901 17.3259 12.98H16.3259C16.3259 13.2071 16.398 13.4392 16.5804 13.6216L17.2875 12.9144ZM17.3259 12.98C17.3259 12.9616 17.3287 12.9674 17.3211 12.9876C17.3124 13.0106 17.2948 13.0402 17.2661 13.0657L16.6018 12.3183C16.3909 12.5057 16.3259 12.7587 16.3259 12.98H17.3259ZM17.2661 13.0657C17.2529 13.0774 17.2403 13.0857 17.23 13.0912C17.2199 13.0966 17.213 13.0988 17.211 13.0994C17.2091 13.1 17.2116 13.099 17.2197 13.098C17.2277 13.097 17.2403 13.096 17.2579 13.096V12.096C17.0504 12.096 16.8014 12.1408 16.6018 12.3183L17.2661 13.0657ZM17.2579 13.096H19.4059V12.096H17.2579V13.096ZM19.4059 13.096C19.4309 13.096 19.4337 13.0994 19.4224 13.0955C19.4164 13.0934 19.4073 13.0896 19.3964 13.0829C19.3855 13.0762 19.3745 13.0677 19.3644 13.0576L20.0715 12.3504C19.8776 12.1565 19.6286 12.096 19.4059 12.096V13.096ZM19.3644 13.0576C19.3543 13.0474 19.3457 13.0365 19.339 13.0255C19.3324 13.0147 19.3285 13.0055 19.3264 12.9996C19.3225 12.9882 19.3259 12.9911 19.3259 13.016H20.3259C20.3259 12.7933 20.2654 12.5444 20.0715 12.3504L19.3644 13.0576ZM19.3259 13.016V16.148H20.3259V13.016H19.3259ZM19.3259 16.148C19.3259 16.2157 19.3142 16.2334 19.3187 16.2244L20.2132 16.6716C20.2976 16.5026 20.3259 16.3203 20.3259 16.148H19.3259ZM19.3187 16.2244C19.3279 16.2061 19.3407 16.19 19.3541 16.1781C19.3668 16.1669 19.3743 16.1645 19.3696 16.1665L19.7542 17.0895C19.9419 17.0113 20.1109 16.8761 20.2132 16.6716L19.3187 16.2244ZM19.3743 16.1645C19.0743 16.286 18.7014 16.3943 18.2503 16.486L18.4496 17.466C18.9425 17.3657 19.3776 17.242 19.7495 17.0915L19.3743 16.1645ZM18.2568 16.4848C17.8213 16.5674 17.4005 16.608 16.9939 16.608V17.608C17.4674 17.608 17.9506 17.5606 18.4431 17.4672L18.2568 16.4848Z" fill="#E9E9E9" mask="url(#path-2-outside-1_4366_729)"/>
</svg>
