<svg width="190" height="68" viewBox="0 0 190 68" fill="none" xmlns="http://www.w3.org/2000/svg">
<g clip-path="url(#clip0_4309_267)">
<path d="M165.061 42.6823C165.061 42.6823 165.114 35.2137 169.225 34.5579C172.475 34.0391 165.061 42.6823 165.061 42.6823Z" fill="url(#paint0_linear_4309_267)"/>
<path d="M172.636 37.9252C172.636 37.9252 172.135 30.8971 175.424 30.0602C178.027 29.3995 172.636 37.9252 172.636 37.9252Z" fill="url(#paint1_linear_4309_267)"/>
<path d="M178.664 32.3751C178.664 32.3751 176.387 26.1253 179.184 24.4857C181.398 23.1936 178.664 32.3751 178.664 32.3751Z" fill="url(#paint2_linear_4309_267)"/>
<path d="M182.566 26.0469C182.566 26.0469 179.929 20.859 182.206 19.1314C184.006 17.761 182.566 26.0469 182.566 26.0469Z" fill="url(#paint3_linear_4309_267)"/>
<path d="M184.575 20.1396C184.575 20.1396 181.597 16.0236 183.286 14.2568C184.619 12.862 184.575 20.1396 184.575 20.1396Z" fill="url(#paint4_linear_4309_267)"/>
<path d="M164.783 42.5942C164.783 42.5942 171.565 45.149 173.594 41.5958C175.2 38.7865 164.783 42.5942 164.783 42.5942Z" fill="url(#paint5_linear_4309_267)"/>
<path d="M172.568 37.7C172.568 37.7 178.567 39.9416 180.43 36.6478C181.904 34.0392 172.568 37.7 172.568 37.7Z" fill="url(#paint6_linear_4309_267)"/>
<path d="M178.377 32.0081C178.377 32.0081 184.356 32.2332 185.067 28.6653C185.626 25.8463 178.377 32.0081 178.377 32.0081Z" fill="url(#paint7_linear_4309_267)"/>
<path d="M182.269 25.6456C182.269 25.6456 187.781 25.8463 188.443 22.4497C188.969 19.7677 182.269 25.6456 182.269 25.6456Z" fill="url(#paint8_linear_4309_267)"/>
<path d="M184.507 20.169C184.507 20.169 189.12 19.5915 189.222 16.5914C189.3 14.2177 184.507 20.169 184.507 20.169Z" fill="url(#paint9_linear_4309_267)"/>
<path d="M186.346 12.6367C186.293 12.6269 186.244 12.6612 186.234 12.7101C185.49 16.924 184.366 21.1086 182.585 25.0044C180.805 28.8169 178.494 32.5806 175.2 35.2283C168.53 40.9643 160.234 44.3854 152.051 47.3464C147.234 48.9468 142.388 50.5863 137.323 51.1541C130.833 51.9714 124.245 51.9616 117.726 51.4722C114.841 51.2177 111.951 50.973 109.124 50.3465C104.234 49.167 99.5881 46.8178 95.2483 44.2581C92.874 42.8046 90.2127 41.0426 87.9795 39.3737C83.6883 36.1974 79.5917 32.698 75.8551 28.8659C76.2152 28.4743 76.5655 28.0339 76.9158 27.5347C77.4655 26.7467 77.991 25.8853 78.4921 24.9456C78.9933 24.0059 79.4555 23.0907 79.8739 22.1951H79.5576C79.1392 23.0907 78.6721 23.9913 78.1564 24.9065C77.6407 25.8217 77.125 26.6488 76.5995 27.3927C76.2735 27.8528 75.9427 28.259 75.6167 28.6212C74.9259 27.9115 74.2496 27.1872 73.5879 26.453C73.6609 26.2279 73.729 25.9979 73.8166 25.7532C74.235 24.5296 74.7604 23.1739 75.3929 21.6812C76.0254 20.1885 76.653 18.7496 77.2855 17.3645H79.7036V17.0806H77.4607C78.0688 15.7201 78.6381 14.5014 79.1781 13.4345C79.7133 12.3675 80.1123 11.5991 80.3701 11.1244H78.3754C78.1175 11.6187 77.7088 12.3969 77.1493 13.4687C76.5898 14.5357 75.9914 15.7396 75.3637 17.0806H73.0187V17.3988H75.2275C74.7848 18.3385 74.3566 19.3124 73.9479 20.3255C73.6901 20.9617 73.4565 21.5784 73.2327 22.1951C72.9749 22.7579 72.6294 23.4774 72.2013 24.3436C72.1575 24.4366 72.0991 24.5247 72.0505 24.6177C71.1017 23.4676 70.1676 22.3076 69.2626 21.1233C69.3307 20.9275 69.4037 20.7268 69.467 20.5359C69.7346 19.7137 69.8951 18.9796 69.9389 18.3336C69.9876 17.6875 69.8708 17.1638 69.5886 16.7674C69.3064 16.3661 68.7956 16.1703 68.0463 16.1703C67.6279 16.1703 67.1997 16.3074 66.7667 16.5765C66.5818 16.694 66.397 16.831 66.2218 16.9828C63.3708 12.9548 60.6997 8.78987 58.1259 4.59065C58.1259 4.58575 58.1114 4.58086 58.1065 4.57597C57.7075 3.88588 57.2356 3.27411 56.681 2.74554C56.0144 2.10929 55.2797 1.5905 54.4721 1.17939C53.6645 0.768279 52.8082 0.469732 51.8984 0.278859C50.9885 0.0928791 50.0641 -0.00500488 49.13 -0.00500488C47.2617 -0.00500488 45.5345 0.200551 43.9436 0.611664C42.3575 1.02278 40.8979 1.58561 39.5648 2.30506C38.2317 3.01961 37.0154 3.88099 35.9061 4.87941C34.7968 5.87782 33.7751 6.96433 32.8409 8.13894C31.3911 7.45865 29.6493 6.9105 27.6059 6.49939C25.5624 6.08827 23.1638 5.88272 20.4052 5.88272C17.6466 5.88272 14.9658 6.18616 12.6986 6.79793C10.4313 7.40971 8.47062 8.22215 6.81155 9.23035C5.15248 10.2386 3.79992 11.3838 2.74901 12.6661C1.69811 13.9484 0.948849 15.2551 0.506106 16.5961C0.0633633 17.9371 -0.082596 19.2439 0.0682286 20.5262C0.219053 21.8084 0.671527 22.9537 1.41592 23.9619C2.16518 24.9701 3.20149 25.7825 4.53458 26.3943C5.86768 27.0061 7.50242 27.3095 9.43881 27.3095C10.3973 27.3095 11.346 27.1725 12.2947 26.9033C13.2386 26.6341 14.1387 26.2573 14.9901 25.7776C15.8416 25.298 16.62 24.7107 17.3206 24.0157C18.0212 23.3207 18.6051 22.5524 19.0721 21.7057L18.7899 21.5637C18.3472 22.386 17.778 23.1299 17.0919 23.8004C16.4011 24.4709 15.6518 25.0435 14.8344 25.528C14.0171 26.0077 13.1462 26.3796 12.2266 26.639C11.3022 26.8984 10.3778 27.0257 9.44368 27.0257C7.85272 27.0257 6.52449 26.732 5.44926 26.1447C4.37403 25.5574 3.55179 24.7841 2.97768 23.82C2.40358 22.8558 2.0922 21.7546 2.03381 20.5066C1.97543 19.2635 2.17004 17.991 2.61278 16.6989C3.05553 15.4068 3.75613 14.1392 4.7146 12.8912C5.67306 11.6481 6.89426 10.5322 8.37331 9.54358C9.85723 8.55495 11.6039 7.7572 13.6084 7.14542C15.6178 6.53365 17.8801 6.20573 20.4052 6.15679C23.1833 6.13232 25.5624 6.35745 27.5329 6.8273C29.5082 7.29714 31.1332 7.9187 32.4177 8.69688C30.9678 10.6007 29.698 12.6416 28.5984 14.8293C27.4988 17.0121 26.4771 19.1558 25.5333 21.2603C24.5894 23.3648 23.665 25.3421 22.7649 27.197C21.8648 29.0519 20.9015 30.6033 19.8749 31.8464C18.9894 31.4451 18.1039 31.0781 17.2282 30.7355C16.3524 30.3929 15.574 30.2118 14.8977 30.1873C13.5889 30.1628 12.6207 30.3978 11.9882 30.8921C11.3557 31.3864 11.0492 31.9296 11.059 32.5316C11.0687 33.1287 11.3995 33.6818 12.0418 34.1859C12.684 34.69 13.623 34.9445 14.8636 34.9445C17.1065 34.9445 19.1256 34.1712 20.9258 32.6197C21.5583 32.9036 22.1811 33.1434 22.7989 33.3441C23.4168 33.5447 23.9958 33.6622 24.531 33.6965C25.0662 33.7307 25.5624 33.6475 26.0198 33.4517C26.4771 33.2511 26.8566 32.884 27.1583 32.3408L26.8761 32.1646C26.6182 32.6344 26.2874 32.9574 25.8787 33.1336C25.47 33.3098 25.0224 33.3832 24.531 33.3636C24.0396 33.3392 23.5093 33.2413 22.9352 33.0651C22.3611 32.8889 21.7724 32.6736 21.1642 32.4142C22.473 31.2396 23.6261 29.7468 24.6332 27.9409C25.6354 26.13 26.6085 24.187 27.5426 22.107C28.4768 20.027 29.4206 17.9029 30.3791 15.7298C31.3376 13.5568 32.4323 11.5062 33.6729 9.58273C34.6557 10.3805 35.366 11.2565 35.8088 12.206C36.2515 13.1555 36.4753 14.1148 36.4753 15.0789C36.4753 16.0431 36.2759 16.9779 35.8818 17.8784C35.4828 18.7838 34.9282 19.5816 34.2178 20.2766C33.5075 20.9715 32.6609 21.5197 31.6781 21.9308C30.6953 22.3419 29.625 22.5475 28.4573 22.5475V22.8656C30.092 22.8656 31.5614 22.6307 32.8701 22.1608C34.1789 21.691 35.2687 21.0743 36.1445 20.3108C37.0202 19.5473 37.6673 18.6713 38.0906 17.6875C38.509 16.6989 38.6647 15.6858 38.548 14.6384C38.4312 13.5911 38.0176 12.5731 37.3024 11.5747C36.5921 10.5763 35.5558 9.66593 34.2032 8.84371C35.0206 7.62016 35.9255 6.4847 36.9181 5.42756C37.9106 4.37041 39.015 3.46498 40.2265 2.71617C41.4428 1.96246 42.7759 1.37027 44.2355 0.934681C45.6951 0.499098 47.325 0.283753 49.1203 0.283753C50.0301 0.283753 50.9302 0.376743 51.8156 0.567616C52.7011 0.753596 53.538 1.04235 54.3213 1.429C55.1046 1.81564 55.8149 2.31485 56.4571 2.92662C57.0994 3.5384 57.6783 4.28231 58.1259 5.14859C58.7584 6.29872 59.4931 7.38524 60.1742 8.50601C62.0182 11.467 63.9449 14.3742 65.9396 17.2324C65.7937 17.3743 65.6526 17.5211 65.5115 17.6875C65.1125 18.1574 64.7184 18.7055 64.3195 19.3271C63.9205 19.9486 63.5508 20.5996 63.2005 21.2848L64.8839 17.0562H62.7139C62.0766 18.7153 61.41 20.4381 60.7143 22.2098C60.2959 23.1005 59.8288 24.001 59.318 24.9163C58.8022 25.8315 58.2865 26.6586 57.7611 27.4025C57.2356 28.1464 56.7101 28.7533 56.1847 29.2329C55.6592 29.7126 55.1727 29.9573 54.73 29.9573C54.2629 29.9573 54.0294 29.6685 54.0294 29.0959C54.0294 28.5233 54.1753 27.7989 54.4672 26.9278C54.7592 26.0566 55.1435 25.0973 55.6252 24.0402C56.102 22.983 56.5836 21.9797 57.0604 21.0254C57.5372 20.0759 57.9751 19.2341 58.3741 18.5049C58.773 17.7756 59.026 17.296 59.1428 17.0611H56.9729L56.0631 18.7545C56.1117 18.451 56.1214 18.1427 56.0971 17.8392C56.0728 17.5358 56.0047 17.2568 55.8879 17.0121C55.7711 16.7674 55.6009 16.5668 55.3819 16.415C55.1581 16.2633 54.8759 16.185 54.5256 16.185C53.5672 16.185 52.6476 16.5325 51.7573 17.2226C50.8718 17.9176 50.069 18.7838 49.3587 19.8312C48.7943 20.6632 48.3126 21.549 47.9088 22.4936C47.6461 23.0271 47.3201 23.6584 46.926 24.3926C46.4589 25.2637 45.9286 26.1055 45.3302 26.9278C44.7366 27.75 44.0847 28.4597 43.3841 29.0616C42.6835 29.6587 41.9731 29.9622 41.2482 29.9622C40.64 29.9622 40.3141 29.5755 40.2654 28.7974C40.2168 28.0241 40.3724 27.011 40.7227 25.7678C41.073 24.5247 41.5742 23.1201 42.231 21.5588C42.8829 19.9976 43.5981 18.4168 44.3669 16.8213C45.2086 16.3025 46.1086 15.6515 47.0622 14.8636C48.0207 14.0756 48.9062 13.2436 49.7236 12.3626C50.5409 11.4817 51.2172 10.5909 51.7573 9.68551C52.2924 8.78008 52.5746 7.94318 52.599 7.165C52.599 6.76367 52.5065 6.45044 52.3168 6.21552C52.1319 5.9806 51.84 5.86314 51.441 5.86314C50.8329 5.86314 50.1177 6.21063 49.2857 6.90071C48.4586 7.59569 47.5877 8.5158 46.6779 9.66593C45.7681 10.8161 44.8631 12.1228 43.963 13.5764C43.063 15.0349 42.2456 16.5227 41.5109 18.0497C40.7763 19.5767 40.1632 21.0743 39.6718 22.5426C39.1804 24.0108 38.8837 25.3127 38.7766 26.453C38.6696 27.5934 38.8058 28.5135 39.1804 29.2183C39.5551 29.923 40.2411 30.2754 41.2482 30.2754C42.0412 30.2754 42.8002 29.972 43.5252 29.3602C44.2501 28.7484 44.9166 28.0192 45.5199 27.1774C46.1281 26.3307 46.6779 25.4497 47.1644 24.5345C47.1741 24.5149 47.1839 24.4954 47.1985 24.4709C46.9795 25.2246 46.8287 25.9489 46.7606 26.6292C46.6536 27.6766 46.7557 28.5429 47.0574 29.2378C47.359 29.9328 47.9331 30.2754 48.7748 30.2754C49.1495 30.2754 49.5289 30.1579 49.9133 29.923C50.2977 29.6881 50.6723 29.3749 51.0323 28.9882C51.3924 28.6016 51.7378 28.1611 52.0638 27.6668C52.3898 27.1725 52.706 26.6586 53.0076 26.1153C52.8666 26.7026 52.779 27.2508 52.7449 27.7549C52.7109 28.259 52.7547 28.6995 52.886 29.0763C53.0125 29.4532 53.2266 29.7468 53.5185 29.9573C53.8104 30.1677 54.2142 30.2754 54.7251 30.2754C55.236 30.2754 55.8149 30.016 56.389 29.5021C56.9631 28.9833 57.5227 28.3324 58.0724 27.5444C58.6222 26.7565 59.1477 25.8951 59.6488 24.9554C59.6537 24.9456 59.6634 24.9309 59.6683 24.9212C59.0941 26.4237 58.5395 27.9164 58.0189 29.3993H60.0867C60.2716 28.905 60.5294 28.2443 60.8554 27.4074C61.1814 26.5754 61.5511 25.6749 61.9598 24.7107C62.3685 23.7465 62.8112 22.7775 63.2929 21.8035C63.7697 20.8296 64.2757 19.9486 64.8011 19.1607C65.239 18.5049 65.6818 17.9616 66.1391 17.5064C66.611 18.1769 67.0781 18.8475 67.5598 19.5131C67.6133 19.5914 67.6717 19.6697 67.7301 19.748C67.589 20.1004 67.4333 20.4723 67.2581 20.8639C66.8932 21.6861 66.5381 22.5328 66.1878 23.3991C65.8375 24.2702 65.5358 25.112 65.2779 25.9343C65.0201 26.7565 64.879 27.4906 64.8595 28.1366C64.8352 28.7827 64.9714 29.3015 65.2634 29.6881C65.5553 30.0747 66.0759 30.2705 66.8203 30.2705C67.5646 30.2705 68.3285 29.9671 69.0291 29.3553C69.7297 28.7435 70.3671 28.0094 70.9363 27.1529C71.3255 26.5656 71.6807 25.9587 72.0164 25.3469C72.0699 25.4106 72.1283 25.4791 72.1818 25.5427C72.1478 25.6846 72.104 25.8315 72.0699 25.9734C71.885 26.8201 71.8023 27.5591 71.8267 28.1954C71.851 28.8316 72.0018 29.3357 72.284 29.7126C72.5662 30.0894 72.9943 30.2754 73.5782 30.2754C74.1133 30.2754 74.668 30.016 75.2421 29.5021C75.3248 29.4287 75.4027 29.3455 75.4854 29.2672C79.1733 33.1923 83.2115 36.7945 87.4832 40.0589C89.7018 41.7866 92.368 43.617 94.7325 45.1293C99.1502 47.8456 103.777 50.2976 108.827 51.6239C111.708 52.3336 114.68 52.5734 117.629 52.8132C124.241 53.3124 130.911 53.4054 137.503 52.5538C142.666 52.0448 147.57 50.1312 152.42 48.3791C161.596 44.8552 171.171 40.7098 177.91 33.4566C180.386 30.5935 182.186 27.1872 183.588 23.6878C184.955 20.1689 185.831 16.4836 186.429 12.7542C186.439 12.7052 186.405 12.6514 186.356 12.6416L186.346 12.6367ZM17.452 33.9705C16.6589 34.4159 15.7832 34.6508 14.8247 34.6753C13.6814 34.6508 12.8153 34.4208 12.2315 33.9901C11.6477 33.5545 11.3557 33.0749 11.3557 32.5463C11.3557 32.0177 11.6477 31.543 12.2315 31.1172C12.8153 30.6963 13.7008 30.4956 14.8928 30.5201C15.5691 30.5201 16.3184 30.6816 17.1357 31.0144C17.9531 31.3423 18.7948 31.7094 19.656 32.1058C18.9797 32.9036 18.245 33.5252 17.4471 33.9754L17.452 33.9705ZM45.2475 14.9957C45.5637 14.3986 45.9238 13.7281 46.3324 12.9891C46.7411 12.2501 47.1839 11.4719 47.6655 10.6644C48.1423 9.85191 48.624 9.11289 49.1008 8.44238C49.5776 7.77188 50.0252 7.21883 50.4339 6.78814C50.8426 6.35256 51.188 6.13722 51.4653 6.13722C51.767 6.13722 51.9811 6.24489 52.0978 6.45534C52.2146 6.66579 52.273 6.90071 52.273 7.1601C52.273 7.86487 52.02 8.63326 51.5189 9.47017C51.0177 10.3022 50.3901 11.1342 49.6457 11.9564C48.8965 12.7786 48.0742 13.5666 47.1741 14.3154C46.2741 15.0691 45.4178 15.7152 44.6004 16.2535C44.7172 16.0186 44.9312 15.6026 45.2475 15.0006V14.9957ZM53.4261 24.7352C53.1244 25.3469 52.7887 25.9587 52.4287 26.5656C52.0638 27.1774 51.6794 27.7353 51.2707 28.2394C50.862 28.7435 50.4485 29.1546 50.0252 29.4728C49.6068 29.7909 49.1835 29.9475 48.7651 29.9475C48.4391 29.9475 48.2883 29.6147 48.3078 28.9442C48.3321 28.2737 48.4683 27.4466 48.7262 26.4579C48.984 25.4693 49.3392 24.3926 49.7965 23.218C50.2539 22.0434 50.7501 20.9617 51.2853 19.978C51.8205 18.9894 52.3703 18.1623 52.9298 17.4918C53.4893 16.8213 54.0148 16.4884 54.5062 16.4884C55.0413 16.4884 55.4014 16.6646 55.5765 17.017C55.7517 17.3694 55.8101 17.8148 55.7517 18.358C55.6933 18.8964 55.5522 19.4984 55.3333 20.1542C55.1095 20.81 54.8711 21.4463 54.6132 22.058C54.3553 22.6698 54.1121 23.218 53.8785 23.6976C53.645 24.1772 53.4942 24.5247 53.4212 24.7352H53.4261ZM66.3921 17.247C66.3921 17.247 66.4018 17.2373 66.4067 17.2324C66.9565 16.7381 67.4965 16.4933 68.0366 16.4933C68.3626 16.4933 68.5134 16.694 68.4939 17.0904C68.4696 17.4918 68.348 18.0105 68.1242 18.6566C68.0512 18.8621 67.9733 19.0824 67.8858 19.3026C67.3798 18.6174 66.8835 17.9322 66.3921 17.2422V17.247ZM70.6979 26.9033C70.1384 27.7353 69.5302 28.4597 68.8783 29.0714C68.2263 29.6832 67.5452 29.9866 66.8446 29.9866C66.4456 29.9866 66.251 29.786 66.251 29.3896C66.251 28.9931 66.3581 28.4694 66.5673 27.8234C66.7765 27.1774 67.0635 26.4432 67.4236 25.621C67.7836 24.7988 68.1485 23.9521 68.5085 23.0858C68.7129 22.5915 68.9026 22.107 69.0778 21.6274C69.9535 22.802 70.8585 23.957 71.7926 25.0876C71.4569 25.7042 71.1017 26.3111 70.6979 26.9082V26.9033ZM72.2548 24.8869C72.3132 24.7792 72.3716 24.6715 72.4299 24.5639C72.391 24.7009 72.357 24.8331 72.3229 24.9652C72.3035 24.9407 72.2791 24.9114 72.2597 24.8869H72.2548ZM75.0232 29.228C74.4977 29.7077 74.0112 29.9524 73.5684 29.9524C73.1257 29.9524 72.9505 29.5609 73.043 28.7729C73.1014 28.2737 73.2327 27.6766 73.4273 27.0012C74.0258 27.6815 74.6291 28.352 75.247 29.0127C75.174 29.0861 75.101 29.1644 75.0232 29.228Z" fill="#275331"/>
<path d="M186.035 14.756C186.035 14.756 183.471 11.2273 184.818 9.79328C185.884 8.65783 186.035 14.756 186.035 14.756Z" fill="url(#paint10_linear_4309_267)"/>
<path d="M185.966 14.7854C185.966 14.7854 189.922 14.2764 190 11.5503C190.058 9.39198 185.966 14.7854 185.966 14.7854Z" fill="url(#paint11_linear_4309_267)"/>
<path d="M185.894 14.57C185.894 14.7609 186.083 14.9371 186.254 14.6972C187.129 13.4737 189.655 10.268 187.431 10.1456C185.967 10.0673 185.874 13.273 185.894 14.5749V14.57Z" fill="url(#paint12_linear_4309_267)"/>
<path d="M117.074 36.2318C115.814 37.8224 115.128 39.5304 113.975 41.1064C111.338 44.8455 107.46 47.5031 103.062 48.7169C103.062 48.7169 103.062 48.7462 103.062 48.7854C102.113 50.6354 101.958 52.8182 102.279 54.8493C102.756 57.9865 104.561 60.8153 106.915 62.866C108.385 64.1727 110.302 65.0292 111.907 65.9934C112.652 66.5122 113.435 67.0407 113.751 67.9951C113.985 66.9624 113.338 65.8955 112.729 65.1026C111.426 63.5463 109.893 62.5332 108.584 61.0943C105.5 57.8054 103.685 53.5376 103.325 49.0301C105.242 49.5048 107.295 49.2356 109.124 48.5553C112.087 47.4688 114.496 45.1343 116.033 42.4082C117.021 40.7002 117.478 38.6446 118.106 36.8729C118.461 36.036 118.826 35.1599 119.697 34.6607C118.641 34.6314 117.731 35.478 117.079 36.2366L117.074 36.2318Z" fill="url(#paint13_linear_4309_267)"/>
<path d="M131.257 61.9459C126.158 60.781 121.239 57.3894 119.439 52.3043C120.081 52.2602 120.723 52.1623 121.356 52.0302C124.869 51.2373 127.9 48.8637 129.841 45.8586C130.926 44.224 131.5 42.232 132.303 40.5239C132.741 39.6234 133.261 38.9284 134.098 38.4439C131.996 38.6005 130.887 40.8959 129.894 42.5012C127.223 47.3562 122.465 51.0905 116.885 51.6533L116.836 52.1379C117.167 52.2113 117.502 52.2602 117.838 52.2896C117.838 52.2896 117.838 52.2945 117.838 52.2994C117.926 52.7741 118.081 53.2684 118.232 53.7236C120.042 59.2296 125.394 62.8757 131.033 63.2673C132.926 63.4679 134.969 63.3603 136.341 64.7551C135.519 62.8072 133.071 62.45 131.257 61.9507V61.9459Z" fill="url(#paint14_linear_4309_267)"/>
<path d="M145.356 58.4808C145.04 58.4612 144.529 58.3878 144.208 58.3535C140.063 58.0207 136.073 55.7449 133.986 52.089C136.837 51.4772 139.348 49.5587 140.905 47.0969C141.746 45.7852 142.194 44.1897 142.797 42.8243C143.123 42.1733 143.493 41.5028 144.184 41.1798L144.169 41.1015C142.899 41.1847 142.062 42.4083 141.445 43.4067C140.335 45.5503 139.027 47.5667 137.173 49.1329C135.309 50.6697 133.057 51.6876 130.668 52.0645L130.658 52.182C131.33 52.319 132.016 52.3288 132.697 52.2701C132.706 52.2994 132.716 52.3239 132.716 52.3239C134.108 56.1658 137.83 58.7402 141.771 59.2981C143.683 59.6407 145.653 59.0828 147.507 59.5428C147.852 59.6456 148.198 59.7924 148.46 60.0714L148.524 60.0274C147.915 58.9213 146.5 58.6521 145.351 58.4759L145.356 58.4808Z" fill="url(#paint15_linear_4309_267)"/>
<path d="M153.788 50.8312C152.669 50.9682 151.618 51.3108 150.508 51.1346C149.253 50.9927 148.042 50.4396 147.069 49.6419C148.372 49.3727 149.56 48.5798 150.362 47.5129C150.854 46.8718 151.18 46.1132 151.36 45.3448C151.545 44.6204 151.554 43.8667 152.158 43.392L152.114 43.2745C151.691 43.3675 151.408 43.7346 151.199 44.0723C150.693 45.0952 150.455 46.1621 149.74 47.0431C148.995 48.0562 147.959 48.8392 146.767 49.3874C146.767 49.3874 146.762 49.3874 146.762 49.3825L146.743 49.4021C146.597 49.4657 146.451 49.5342 146.3 49.5929L146.324 49.7496C146.324 49.7496 146.339 49.7496 146.348 49.7496L146.178 49.8964C146.733 50.5424 147.385 50.9927 148.115 51.35C149.555 52.0547 151.297 52.133 152.79 51.58C153.481 51.3402 154.167 50.9584 154.868 51.2521L154.941 51.1542C154.624 50.8654 154.177 50.8361 153.788 50.841V50.8312Z" fill="url(#paint16_linear_4309_267)"/>
<path d="M132.453 1.91853C133.387 1.91853 134.312 2.01152 135.222 2.20239C136.131 2.38837 136.993 2.69181 137.795 3.10293C138.603 3.51404 139.338 4.03772 140.004 4.66907C140.671 5.30532 141.225 6.05413 141.668 6.92529L141.425 7.06723C140.982 6.19606 140.437 5.45704 139.795 4.84526C139.153 4.23349 138.442 3.73428 137.659 3.34764C136.876 2.96099 136.044 2.67224 135.154 2.48626C134.268 2.30028 133.368 2.20239 132.458 2.20239C130.658 2.20239 129.033 2.42263 127.573 2.85332C126.114 3.28891 124.776 3.8811 123.564 4.63481C122.348 5.38852 121.248 6.28905 120.256 7.3462C119.263 8.40334 118.358 9.54369 117.541 10.7623C118.894 11.5846 119.93 12.4949 120.64 13.4933C121.351 14.4917 121.769 15.5146 121.886 16.5571C122.003 17.5995 121.852 18.6175 121.429 19.6062C121.005 20.5948 120.358 21.466 119.482 22.2295C118.607 22.9929 117.517 23.6096 116.208 24.0795C114.899 24.5493 113.43 24.7842 111.795 24.7842V24.4661C112.963 24.4661 114.038 24.2605 115.016 23.8494C115.999 23.4383 116.841 22.8853 117.556 22.1952C118.266 21.5002 118.821 20.7025 119.22 19.797C119.619 18.8916 119.813 17.9568 119.813 16.9976C119.813 16.0383 119.589 15.079 119.147 14.1247C118.704 13.1752 117.989 12.2991 117.011 11.5014C115.775 13.4297 114.675 15.4755 113.717 17.6485C112.759 19.8215 111.815 21.9456 110.881 24.0256C109.946 26.1057 108.978 28.0487 107.971 29.8595C106.969 31.6704 105.811 33.1582 104.502 34.3328C105.11 34.5922 105.699 34.8075 106.273 34.9837C106.847 35.1599 107.377 35.2578 107.869 35.2823C108.36 35.3068 108.808 35.2284 109.217 35.0523C109.625 34.8761 109.956 34.553 110.214 34.0832L110.496 34.2594C110.195 34.7978 109.815 35.1697 109.358 35.3704C108.9 35.571 108.404 35.6542 107.869 35.6151C107.334 35.5808 106.755 35.4634 106.137 35.2627C105.519 35.062 104.891 34.8222 104.264 34.5384C102.464 36.0898 100.444 36.8631 98.2015 36.8631C96.9657 36.8631 96.0219 36.6086 95.3796 36.1045C94.7374 35.6004 94.4115 35.0474 94.3969 34.4503C94.3823 33.8532 94.6936 33.305 95.3261 32.8107C95.9586 32.3164 96.9268 32.0815 98.2356 32.1059C98.9119 32.1304 99.6903 32.3115 100.566 32.6541C101.442 32.9967 102.322 33.3638 103.213 33.7651C104.239 32.522 105.203 30.9705 106.103 29.1156C107.003 27.2607 107.922 25.2785 108.871 23.1789C109.815 21.0793 110.837 18.9308 111.936 16.748C113.031 14.5651 114.306 12.5194 115.756 10.6155C114.471 9.84224 112.841 9.22067 110.871 8.74594C108.895 8.27609 106.521 8.05096 103.743 8.07543C101.223 8.12437 98.9556 8.45229 96.9463 9.06406C94.9369 9.67583 93.1903 10.4736 91.7112 11.4622C90.2273 12.4508 89.0061 13.5667 88.0525 14.8098C87.094 16.053 86.3934 17.3255 85.9507 18.6175C85.5079 19.9096 85.3133 21.1772 85.3717 22.4252C85.4301 23.6683 85.7463 24.7744 86.3156 25.7386C86.8897 26.7028 87.7119 27.476 88.7872 28.0633C89.8624 28.6506 91.1906 28.9443 92.7816 28.9443C93.7157 28.9443 94.645 28.817 95.5645 28.5577C96.4889 28.2983 97.355 27.9312 98.1723 27.4467C98.9897 26.967 99.7438 26.3895 100.43 25.719C101.121 25.0485 101.685 24.3046 102.128 23.4824L102.41 23.6243C101.943 24.471 101.359 25.2394 100.659 25.9344C99.9579 26.6293 99.1795 27.2166 98.328 27.6963C97.4766 28.1759 96.5765 28.5528 95.6326 28.8219C94.6888 29.0911 93.7352 29.2282 92.7767 29.2282C90.8403 29.2282 89.2056 28.9247 87.8725 28.3129C86.5394 27.7012 85.5031 26.8936 84.7538 25.8805C84.0046 24.8723 83.5569 23.7271 83.4061 22.4448C83.2553 21.1625 83.4013 19.8558 83.844 18.5148C84.2867 17.1737 85.036 15.867 86.0869 14.5847C87.1378 13.3024 88.4904 12.1572 90.1494 11.149C91.8085 10.1408 93.7692 9.32835 96.0365 8.71657C98.3037 8.1048 100.873 7.80136 103.743 7.80136C106.614 7.80136 108.9 8.00691 110.944 8.41803C112.987 8.82914 114.734 9.37729 116.179 10.0576C117.113 8.88297 118.135 7.79646 119.244 6.79805C120.353 5.79963 121.574 4.94314 122.903 4.2237C124.236 3.50914 125.695 2.94142 127.281 2.5303C128.868 2.11919 130.6 1.91364 132.468 1.91364L132.453 1.91853ZM98.1577 36.5939C99.1162 36.5695 99.992 36.3345 100.785 35.8892C101.578 35.4438 102.313 34.8222 102.994 34.0196C102.128 33.6183 101.291 33.2561 100.474 32.9282C99.6562 32.6003 98.907 32.4339 98.2307 32.4339C97.0387 32.4094 96.1532 32.61 95.5694 33.031C94.9856 33.4519 94.6936 33.9315 94.6936 34.4601C94.6936 34.9886 94.9856 35.4683 95.5694 35.9038C96.1532 36.3394 97.0193 36.5695 98.1626 36.589L98.1577 36.5939Z" fill="#275331"/>
<path d="M136.131 24.1186C135.713 25.0143 135.251 25.9295 134.75 26.8692C134.249 27.8089 133.723 28.6702 133.173 29.4582C132.624 30.2462 132.064 30.8971 131.49 31.4159C130.916 31.9347 130.361 32.1892 129.826 32.1892C129.291 32.1892 128.911 32.0815 128.619 31.871C128.328 31.6606 128.118 31.3669 127.987 30.9901C127.86 30.6132 127.812 30.1728 127.846 29.6687C127.88 29.1645 127.968 28.6164 128.109 28.0291C127.807 28.5675 127.491 29.0862 127.165 29.5806C126.839 30.0749 126.493 30.5153 126.133 30.902C125.768 31.2886 125.399 31.6019 125.014 31.8368C124.63 32.0717 124.25 32.1892 123.876 32.1892C123.034 32.1892 122.465 31.8417 122.158 31.1516C121.857 30.4566 121.755 29.5903 121.862 28.543C121.969 27.5005 122.246 26.3651 122.703 25.1415C123.161 23.918 123.744 22.7874 124.455 21.74C125.165 20.6927 125.968 19.8264 126.853 19.1314C127.739 18.4365 128.663 18.0939 129.622 18.0939C129.972 18.0939 130.259 18.1722 130.478 18.3239C130.702 18.4756 130.867 18.6763 130.984 18.921C131.101 19.1657 131.169 19.4447 131.193 19.7481C131.218 20.0516 131.203 20.3599 131.159 20.6633L132.069 18.9699H134.239C134.122 19.2049 133.864 19.6845 133.47 20.4137C133.071 21.143 132.633 21.9799 132.157 22.9342C131.68 23.8837 131.198 24.8919 130.721 25.9491C130.244 27.0062 129.855 27.9704 129.563 28.8366C129.271 29.7078 129.125 30.4273 129.125 31.0048C129.125 31.5823 129.359 31.8661 129.826 31.8661C130.269 31.8661 130.755 31.6263 131.281 31.1418C131.806 30.6622 132.332 30.0504 132.857 29.3114C133.383 28.5724 133.903 27.7452 134.414 26.8251C134.925 25.905 135.397 25.0045 135.815 24.1137H136.131V24.1186ZM123.871 31.871C124.289 31.871 124.713 31.7144 125.131 31.3963C125.549 31.0782 125.968 30.6671 126.377 30.163C126.785 29.6589 127.17 29.1009 127.534 28.4891C127.895 27.8774 128.23 27.2656 128.532 26.6587C128.6 26.4483 128.756 26.1008 128.989 25.6211C129.223 25.1415 129.466 24.5934 129.724 23.9816C129.982 23.3698 130.22 22.7385 130.444 22.0777C130.668 21.4219 130.804 20.8199 130.862 20.2816C130.921 19.7432 130.862 19.293 130.687 18.9406C130.512 18.5882 130.157 18.412 129.617 18.412C129.125 18.412 128.6 18.7448 128.04 19.4153C127.481 20.0858 126.931 20.9129 126.396 21.9016C125.856 22.8902 125.365 23.9669 124.907 25.1415C124.45 26.3161 124.095 27.3977 123.837 28.3815C123.579 29.3701 123.438 30.1972 123.418 30.8677C123.394 31.5382 123.545 31.871 123.876 31.871H123.871Z" fill="#275331"/>
<path d="M148.601 9.07383C148.577 9.84711 148.3 10.6889 147.76 11.5943C147.225 12.4998 146.543 13.3905 145.726 14.2715C144.909 15.1524 144.023 15.9844 143.065 16.7724C142.106 17.5604 141.206 18.2113 140.369 18.7301C139.601 20.3256 138.885 21.9064 138.233 23.4677C137.581 25.0289 137.075 26.4336 136.725 27.6767C136.375 28.9198 136.224 29.9329 136.268 30.7062C136.316 31.4795 136.642 31.871 137.251 31.871C137.976 31.871 138.686 31.5725 139.386 30.9705C140.087 30.3734 140.734 29.6637 141.333 28.8366C141.926 28.0144 142.461 27.1677 142.928 26.3014C143.396 25.4351 143.77 24.7059 144.047 24.1186H144.364C144.062 24.7548 143.663 25.5281 143.172 26.4433C142.68 27.3586 142.131 28.2395 141.527 29.0862C140.919 29.9329 140.253 30.6621 139.532 31.269C138.808 31.8808 138.049 32.1842 137.255 32.1842C136.253 32.1842 135.562 31.8319 135.188 31.1271C134.813 30.4223 134.682 29.5022 134.784 28.3619C134.886 27.2215 135.188 25.9197 135.679 24.4514C136.171 22.9831 136.784 21.4855 137.518 19.9585C138.253 18.4315 139.07 16.9388 139.97 15.4852C140.87 14.0268 141.775 12.7249 142.685 11.5748C143.595 10.4246 144.466 9.49962 145.293 8.80954C146.12 8.11457 146.84 7.77197 147.448 7.77197C147.847 7.77197 148.139 7.88943 148.324 8.12436C148.509 8.35928 148.606 8.6774 148.606 9.07383H148.601ZM147.482 8.05094C147.2 8.05094 146.86 8.26629 146.451 8.70187C146.042 9.13745 145.599 9.6905 145.118 10.3561C144.641 11.0266 144.159 11.7656 143.683 12.5781C143.206 13.3905 142.758 14.1638 142.349 14.9028C141.941 15.6418 141.581 16.3123 141.265 16.9094C140.948 17.5065 140.734 17.9274 140.617 18.1624C141.435 17.624 142.291 16.978 143.191 16.2243C144.091 15.4705 144.913 14.6875 145.663 13.8653C146.412 13.043 147.035 12.2159 147.536 11.379C148.037 10.547 148.29 9.7737 148.29 9.06894C148.29 8.80954 148.232 8.57462 148.115 8.36417C147.998 8.15372 147.789 8.04605 147.482 8.04605V8.05094Z" fill="#275331"/>
<path d="M153.223 24.1186C152.941 24.7304 152.552 25.4939 152.051 26.4091C151.55 27.3243 150.981 28.2102 150.353 29.0716C149.72 29.928 149.039 30.6622 148.305 31.2739C147.57 31.8857 146.84 32.1892 146.115 32.1892C145.132 32.1892 144.403 31.8368 143.926 31.132C143.449 30.4273 143.196 29.561 143.172 28.5234C143.147 27.4907 143.318 26.3602 143.678 25.1415C144.038 23.918 144.553 22.7923 145.22 21.7596C145.887 20.7269 146.68 19.8558 147.604 19.151C148.528 18.4463 149.536 18.0939 150.635 18.0939C151.078 18.0939 151.404 18.2456 151.618 18.5539C151.827 18.8574 151.915 19.2489 151.881 19.7187C151.847 20.1886 151.696 20.6976 151.423 21.2506C151.156 21.8037 150.776 22.3127 150.285 22.7825C149.793 23.2524 149.19 23.6439 148.48 23.962C147.769 24.2801 146.957 24.4514 146.047 24.471C145.697 25.3618 145.405 26.2525 145.171 27.1335C144.938 28.0144 144.802 28.8073 144.768 29.512C144.733 30.2168 144.816 30.7845 145.011 31.2201C145.21 31.6557 145.575 31.871 146.115 31.871C146.792 31.871 147.478 31.5725 148.164 30.9705C148.854 30.3734 149.506 29.654 150.124 28.822C150.742 27.9899 151.292 27.1383 151.769 26.2672C152.246 25.396 152.615 24.6815 152.873 24.1186H153.223ZM150.63 18.412C150.28 18.412 149.91 18.5784 149.526 18.9063C149.141 19.2342 148.757 19.6649 148.368 20.1935C147.979 20.7221 147.599 21.3289 147.21 22.0092C146.826 22.6895 146.48 23.409 146.178 24.1578C146.996 24.1333 147.731 23.9767 148.387 23.683C149.039 23.3894 149.589 23.0272 150.032 22.5916C150.475 22.1561 150.825 21.7009 151.083 21.2164C151.341 20.7367 151.491 20.2816 151.54 19.8607C151.589 19.4398 151.535 19.0923 151.384 18.8231C151.234 18.5539 150.981 18.4169 150.63 18.4169V18.412Z" fill="#275331"/>
<path d="M153.223 31.871C153.666 31.871 154.153 31.6312 154.678 31.1467C155.204 30.667 155.729 30.0553 156.255 29.3162C156.78 28.5772 157.301 27.7501 157.811 26.83C158.322 25.9148 158.794 25.0093 159.213 24.1186H159.529C159.11 25.0142 158.648 25.9294 158.147 26.8691C157.646 27.8088 157.121 28.6702 156.571 29.4582C156.021 30.2461 155.461 30.8971 154.887 31.4158C154.313 31.9346 153.759 32.1891 153.223 32.1891C152.64 32.1891 152.207 32.0031 151.929 31.6263C151.647 31.2494 151.496 30.7453 151.472 30.1091C151.448 29.4728 151.53 28.7338 151.715 27.8871C151.9 27.0404 152.158 26.1448 152.484 25.1904C152.81 24.2409 153.18 23.2572 153.588 22.249C153.997 21.2408 154.425 20.262 154.868 19.3223H152.659V19.0042H155.004C155.637 17.6631 156.23 16.4592 156.79 15.3922C157.349 14.3253 157.758 13.5422 158.016 13.0479H160.011C159.753 13.5178 159.359 14.2861 158.819 15.358C158.278 16.4249 157.709 17.6436 157.101 19.0042H159.344V19.288H156.926C156.293 20.6731 155.666 22.112 155.033 23.6047C154.401 25.0974 153.875 26.4531 153.457 27.6767C153.039 28.9002 152.781 29.9035 152.688 30.6915C152.596 31.4795 152.771 31.871 153.214 31.871H153.223Z" fill="#275331"/>
<path d="M159.563 31.871C160.006 31.871 160.492 31.6312 161.018 31.1467C161.543 30.667 162.068 30.0553 162.594 29.3162C163.119 28.5772 163.64 27.7501 164.151 26.83C164.662 25.9148 165.134 25.0093 165.552 24.1186H165.868C165.45 25.0142 164.988 25.9294 164.486 26.8691C163.985 27.8088 163.46 28.6702 162.91 29.4582C162.36 30.2461 161.801 30.8971 161.227 31.4158C160.653 31.9346 160.098 32.1891 159.563 32.1891C158.979 32.1891 158.546 32.0031 158.269 31.6263C157.986 31.2494 157.836 30.7453 157.811 30.1091C157.787 29.4728 157.87 28.7338 158.055 27.8871C158.239 27.0404 158.497 26.1448 158.823 25.1904C159.149 24.2409 159.519 23.2572 159.928 22.249C160.336 21.2408 160.765 20.262 161.207 19.3223H158.998V19.0042H161.344C161.976 17.6631 162.57 16.4592 163.129 15.3922C163.689 14.3253 164.097 13.5422 164.355 13.0479H166.35C166.092 13.5178 165.698 14.2861 165.158 15.358C164.618 16.4249 164.049 17.6436 163.44 19.0042H165.683V19.288H163.265C162.633 20.6731 162.005 22.112 161.373 23.6047C160.74 25.0974 160.215 26.4531 159.796 27.6767C159.378 28.9002 159.12 29.9035 159.028 30.6915C158.935 31.4795 159.11 31.871 159.553 31.871H159.563Z" fill="#275331"/>
<path d="M174.733 24.1186C174.451 24.7304 174.061 25.4939 173.56 26.4091C173.059 27.3243 172.49 28.2102 171.862 29.0716C171.23 29.928 170.549 30.6622 169.814 31.2739C169.079 31.8857 168.349 32.1892 167.624 32.1892C166.642 32.1892 165.912 31.8368 165.435 31.132C164.958 30.4273 164.705 29.561 164.681 28.5234C164.657 27.4907 164.827 26.3602 165.187 25.1415C165.547 23.918 166.063 22.7923 166.729 21.7596C167.396 20.7269 168.189 19.8558 169.113 19.151C170.038 18.4463 171.045 18.0939 172.144 18.0939C172.587 18.0939 172.913 18.2456 173.127 18.5539C173.336 18.8574 173.424 19.2489 173.39 19.7187C173.356 20.1886 173.205 20.6976 172.933 21.2506C172.665 21.8037 172.285 22.3127 171.794 22.7825C171.303 23.2524 170.699 23.6439 169.989 23.962C169.279 24.2801 168.466 24.4514 167.556 24.471C167.206 25.3618 166.914 26.2525 166.681 27.1335C166.447 28.0144 166.311 28.8073 166.277 29.512C166.243 30.2168 166.325 30.7845 166.52 31.2201C166.72 31.6557 167.084 31.871 167.624 31.871C168.301 31.871 168.987 31.5725 169.673 30.9705C170.364 30.3734 171.016 29.654 171.634 28.822C172.251 27.9899 172.801 27.1383 173.278 26.2672C173.755 25.396 174.125 24.6815 174.382 24.1186H174.733ZM172.14 18.412C171.789 18.412 171.419 18.5784 171.035 18.9063C170.651 19.2342 170.266 19.6649 169.877 20.1935C169.488 20.7221 169.108 21.3289 168.719 22.0092C168.335 22.6895 167.989 23.409 167.688 24.1578C168.505 24.1333 169.24 23.9767 169.897 23.683C170.549 23.3894 171.098 23.0272 171.541 22.5916C171.984 22.1561 172.334 21.7009 172.592 21.2164C172.85 20.7367 173.001 20.2816 173.049 19.8607C173.098 19.4398 173.044 19.0923 172.894 18.8231C172.743 18.5539 172.49 18.4169 172.14 18.4169V18.412Z" fill="#275331"/>
</g>
<defs>
<linearGradient id="paint0_linear_4309_267" x1="164.107" y1="38.8282" x2="169.388" y2="38.6027" gradientUnits="userSpaceOnUse">
<stop stop-color="#61178C"/>
<stop offset="0.27" stop-color="#792FA5"/>
<stop offset="0.55" stop-color="#984DC4"/>
<stop offset="1" stop-color="#C989EF"/>
</linearGradient>
<linearGradient id="paint1_linear_4309_267" x1="172.089" y1="34.2059" x2="176.378" y2="33.7156" gradientUnits="userSpaceOnUse">
<stop stop-color="#61178C"/>
<stop offset="0.27" stop-color="#792FA5"/>
<stop offset="0.55" stop-color="#984DC4"/>
<stop offset="1" stop-color="#C989EF"/>
</linearGradient>
<linearGradient id="paint2_linear_4309_267" x1="177.487" y1="29.1354" x2="181.303" y2="27.5535" gradientUnits="userSpaceOnUse">
<stop stop-color="#61178C"/>
<stop offset="0.27" stop-color="#792FA5"/>
<stop offset="0.55" stop-color="#984DC4"/>
<stop offset="1" stop-color="#C989EF"/>
</linearGradient>
<linearGradient id="paint3_linear_4309_267" x1="180.49" y1="23.6114" x2="183.643" y2="21.8294" gradientUnits="userSpaceOnUse">
<stop stop-color="#61178C"/>
<stop offset="0.27" stop-color="#792FA5"/>
<stop offset="0.55" stop-color="#984DC4"/>
<stop offset="1" stop-color="#C989EF"/>
</linearGradient>
<linearGradient id="paint4_linear_4309_267" x1="183.096" y1="17.7535" x2="185.538" y2="15.8226" gradientUnits="userSpaceOnUse">
<stop stop-color="#61178C"/>
<stop offset="0.27" stop-color="#792FA5"/>
<stop offset="0.55" stop-color="#984DC4"/>
<stop offset="1" stop-color="#C989EF"/>
</linearGradient>
<linearGradient id="paint5_linear_4309_267" x1="168.166" y1="44.1775" x2="170.249" y2="39.3923" gradientUnits="userSpaceOnUse">
<stop stop-color="#61178C"/>
<stop offset="0.27" stop-color="#792FA5"/>
<stop offset="0.55" stop-color="#984DC4"/>
<stop offset="1" stop-color="#C989EF"/>
</linearGradient>
<linearGradient id="paint6_linear_4309_267" x1="175.921" y1="38.6268" x2="177.855" y2="34.1834" gradientUnits="userSpaceOnUse">
<stop stop-color="#61178C"/>
<stop offset="0.27" stop-color="#792FA5"/>
<stop offset="0.55" stop-color="#984DC4"/>
<stop offset="1" stop-color="#C989EF"/>
</linearGradient>
<linearGradient id="paint7_linear_4309_267" x1="181.723" y1="31.4921" x2="182.153" y2="26.848" gradientUnits="userSpaceOnUse">
<stop stop-color="#61178C"/>
<stop offset="0.27" stop-color="#792FA5"/>
<stop offset="0.55" stop-color="#984DC4"/>
<stop offset="1" stop-color="#C989EF"/>
</linearGradient>
<linearGradient id="paint8_linear_4309_267" x1="185.127" y1="25.2723" x2="185.534" y2="20.8604" gradientUnits="userSpaceOnUse">
<stop stop-color="#61178C"/>
<stop offset="0.27" stop-color="#792FA5"/>
<stop offset="0.55" stop-color="#984DC4"/>
<stop offset="1" stop-color="#C989EF"/>
</linearGradient>
<linearGradient id="paint9_linear_4309_267" x1="186.872" y1="20.6196" x2="186.619" y2="16.8034" gradientUnits="userSpaceOnUse">
<stop stop-color="#61178C"/>
<stop offset="0.27" stop-color="#792FA5"/>
<stop offset="0.55" stop-color="#984DC4"/>
<stop offset="1" stop-color="#C989EF"/>
</linearGradient>
<linearGradient id="paint10_linear_4309_267" x1="184.965" y1="12.6961" x2="186.936" y2="11.1383" gradientUnits="userSpaceOnUse">
<stop stop-color="#61178C"/>
<stop offset="0.27" stop-color="#792FA5"/>
<stop offset="0.55" stop-color="#984DC4"/>
<stop offset="1" stop-color="#C989EF"/>
</linearGradient>
<linearGradient id="paint11_linear_4309_267" x1="188.014" y1="14.2624" x2="187.782" y2="10.7683" gradientUnits="userSpaceOnUse">
<stop stop-color="#61178C"/>
<stop offset="0.27" stop-color="#792FA5"/>
<stop offset="0.55" stop-color="#984DC4"/>
<stop offset="1" stop-color="#C989EF"/>
</linearGradient>
<linearGradient id="paint12_linear_4309_267" x1="187.498" y1="13.2339" x2="185.583" y2="10.8035" gradientUnits="userSpaceOnUse">
<stop stop-color="#61178C"/>
<stop offset="0.27" stop-color="#792FA5"/>
<stop offset="0.55" stop-color="#984DC4"/>
<stop offset="1" stop-color="#C989EF"/>
</linearGradient>
<linearGradient id="paint13_linear_4309_267" x1="102.128" y1="51.3304" x2="119.697" y2="51.3304" gradientUnits="userSpaceOnUse">
<stop stop-color="#275331"/>
<stop offset="0.25" stop-color="#255531"/>
<stop offset="0.53" stop-color="#09723A"/>
<stop offset="0.55" stop-color="#07753B"/>
<stop offset="1" stop-color="#23A460"/>
</linearGradient>
<linearGradient id="paint14_linear_4309_267" x1="116.841" y1="51.5946" x2="136.346" y2="51.5946" gradientUnits="userSpaceOnUse">
<stop offset="0.19" stop-color="#275331"/>
<stop offset="0.58" stop-color="#0F6C38"/>
<stop offset="0.7" stop-color="#07753B"/>
<stop offset="1" stop-color="#23A460"/>
</linearGradient>
<linearGradient id="paint15_linear_4309_267" x1="130.663" y1="50.5914" x2="148.528" y2="50.5914" gradientUnits="userSpaceOnUse">
<stop offset="0.16" stop-color="#275331"/>
<stop offset="0.38" stop-color="#235632"/>
<stop offset="0.58" stop-color="#196135"/>
<stop offset="0.76" stop-color="#08733A"/>
<stop offset="0.77" stop-color="#07753B"/>
<stop offset="1" stop-color="#23A460"/>
</linearGradient>
<linearGradient id="paint16_linear_4309_267" x1="146.183" y1="47.601" x2="154.945" y2="47.601" gradientUnits="userSpaceOnUse">
<stop offset="0.33" stop-color="#275331"/>
<stop offset="0.46" stop-color="#225732"/>
<stop offset="0.59" stop-color="#166436"/>
<stop offset="0.7" stop-color="#07753B"/>
<stop offset="1" stop-color="#23A460"/>
</linearGradient>
<clipPath id="clip0_4309_267">
<rect width="190" height="68" fill="white"/>
</clipPath>
</defs>
</svg>
