<svg width="10" height="12" viewBox="0 0 10 12" fill="none" xmlns="http://www.w3.org/2000/svg">
<path d="M4.68442 11.6056C4.00275 10.7162 3.42296 9.97289 2.93001 9.34088C2.04818 8.21031 1.44422 7.43599 1.03201 6.81911C0.714083 6.34334 0.521423 5.97685 0.406338 5.6271C0.292087 5.27988 0.25 4.93608 0.25 4.5C0.25 2.17691 2.35121 0.25 5 0.25C7.64879 0.25 9.75 2.17691 9.75 4.5C9.75 4.93608 9.70791 5.27988 9.59366 5.6271C9.47858 5.97685 9.28592 6.34334 8.96799 6.81911C8.55578 7.43599 7.95182 8.21031 7.07 9.34087C6.57703 9.97289 5.99723 10.7162 5.31555 11.6057C5.16728 11.7981 4.83263 11.7981 4.68442 11.6056ZM5 6.625C6.26324 6.625 7.33333 5.69773 7.33333 4.5C7.33333 3.30226 6.26324 2.375 5 2.375C3.73676 2.375 2.66667 3.30226 2.66667 4.5C2.66667 5.69773 3.73676 6.625 5 6.625Z" fill="url(#paint0_linear_4328_33)" stroke="#262626" stroke-width="0.5"/>
<defs>
<linearGradient id="paint0_linear_4328_33" x1="1.64324" y1="1.00525" x2="7.17051" y2="11.843" gradientUnits="userSpaceOnUse">
<stop stop-color="#D72F2F"/>
<stop offset="0.67" stop-color="#A01F1F"/>
<stop offset="1" stop-color="#590B0B"/>
</linearGradient>
</defs>
</svg>
