<svg width="11" height="14" viewBox="0 0 11 14" fill="none" xmlns="http://www.w3.org/2000/svg">
<path d="M5.13449 13.0165C4.38539 12.0215 3.74792 11.1895 3.2057 10.4818M5.13449 13.0165L4.93476 13.1669M5.13449 13.0165C5.1344 13.0164 5.13432 13.0163 5.13423 13.0162L4.93476 13.1669M5.13449 13.0165C5.30768 13.2452 5.69266 13.2452 5.86571 13.0162M3.2057 10.4818L4.93476 13.1669M3.2057 10.4818C2.23499 9.21481 1.56958 8.34632 1.11556 7.65463C0.765114 7.12073 0.551499 6.70763 0.423632 6.31202C0.296548 5.91884 0.25 5.53002 0.25 5.03925C0.25 2.41435 2.57946 0.25 5.5 0.25C8.42054 0.25 10.75 2.41435 10.75 5.03925C10.75 5.53002 10.7035 5.91884 10.5764 6.31202C10.4485 6.70763 10.2349 7.12073 9.88444 7.65463C9.43042 8.34632 8.76501 9.21481 7.7943 10.4818C7.25213 11.1894 6.61473 12.0214 5.86571 13.0162M3.2057 10.4818L6.06524 13.1669M4.93476 13.1669C5.20787 13.5284 5.7921 13.5284 6.06524 13.1669M5.86571 13.0162C5.86565 13.0163 5.86558 13.0164 5.86551 13.0165L6.06524 13.1669M5.86571 13.0162C5.86573 13.0162 5.86575 13.0162 5.86577 13.0162L6.06524 13.1669M5.5 7.38893C6.88269 7.38893 8.04167 6.35709 8.04167 5.03925C8.04167 3.72141 6.88269 2.68956 5.5 2.68956C4.11731 2.68956 2.95833 3.72141 2.95833 5.03925C2.95833 6.35709 4.11731 7.38893 5.5 7.38893Z" fill="url(#paint0_linear_4328_34)" stroke="#262626" stroke-width="0.5"/>
<defs>
<linearGradient id="paint0_linear_4328_34" x1="1.80757" y1="1.12571" x2="8.06181" y2="13.1717" gradientUnits="userSpaceOnUse">
<stop stop-color="#D72F2F"/>
<stop offset="0.67" stop-color="#A01F1F"/>
<stop offset="1" stop-color="#590B0B"/>
</linearGradient>
</defs>
</svg>
