<svg width="64" height="12" viewBox="0 0 64 12" fill="none" xmlns="http://www.w3.org/2000/svg">
<path d="M5.90489 0.616312C5.93483 0.524181 6.06517 0.524181 6.09511 0.616312L7.20708 4.0386C7.24724 4.16221 7.36242 4.2459 7.49239 4.2459H11.0908C11.1877 4.2459 11.228 4.36986 11.1496 4.4268L8.23841 6.54189C8.13326 6.61829 8.08926 6.7537 8.12942 6.8773L9.24139 10.2996C9.27133 10.3917 9.16588 10.4683 9.08751 10.4114L6.17634 8.2963C6.07119 8.21991 5.92881 8.21991 5.82366 8.2963L2.91249 10.4114C2.83412 10.4683 2.72867 10.3917 2.75861 10.2996L3.87058 6.8773C3.91074 6.7537 3.86674 6.61829 3.76159 6.54189L0.850419 4.4268C0.772048 4.36986 0.812325 4.2459 0.909198 4.2459H4.50761C4.63758 4.2459 4.75276 4.16221 4.79292 4.0386L5.90489 0.616312Z" fill="#E0D33C" stroke="#737373" stroke-width="0.2"/>
<path d="M18.9049 0.616312C18.9348 0.524181 19.0652 0.524181 19.0951 0.616312L20.2071 4.0386C20.2472 4.16221 20.3624 4.2459 20.4924 4.2459H24.0908C24.1877 4.2459 24.228 4.36986 24.1496 4.4268L21.2384 6.54189C21.1333 6.61829 21.0893 6.7537 21.1294 6.8773L22.2414 10.2996C22.2713 10.3917 22.1659 10.4683 22.0875 10.4114L19.1763 8.2963C19.0712 8.21991 18.9288 8.21991 18.8237 8.2963L15.9125 10.4114C15.8341 10.4683 15.7287 10.3917 15.7586 10.2996L16.8706 6.8773C16.9107 6.7537 16.8667 6.61829 16.7616 6.54189L13.8504 4.4268C13.772 4.36986 13.8123 4.2459 13.9092 4.2459H17.5076C17.6376 4.2459 17.7528 4.16221 17.7929 4.0386L18.9049 0.616312Z" fill="#E0D33C" stroke="#737373" stroke-width="0.2"/>
<path d="M31.9049 0.616312C31.9348 0.524181 32.0652 0.524181 32.0951 0.616312L33.2071 4.0386C33.2472 4.16221 33.3624 4.2459 33.4924 4.2459H37.0908C37.1877 4.2459 37.228 4.36986 37.1496 4.4268L34.2384 6.54189C34.1333 6.61829 34.0893 6.7537 34.1294 6.8773L35.2414 10.2996C35.2713 10.3917 35.1659 10.4683 35.0875 10.4114L32.1763 8.2963C32.0712 8.21991 31.9288 8.21991 31.8237 8.2963L28.9125 10.4114C28.8341 10.4683 28.7287 10.3917 28.7586 10.2996L29.8706 6.8773C29.9107 6.7537 29.8667 6.61829 29.7616 6.54189L26.8504 4.4268C26.772 4.36986 26.8123 4.2459 26.9092 4.2459H30.5076C30.6376 4.2459 30.7528 4.16221 30.7929 4.0386L31.9049 0.616312Z" fill="#E0D33C" stroke="#737373" stroke-width="0.2"/>
<path d="M44.9049 0.616312C44.9348 0.524181 45.0652 0.524181 45.0951 0.616312L46.2071 4.0386C46.2472 4.16221 46.3624 4.2459 46.4924 4.2459H50.0908C50.1877 4.2459 50.228 4.36986 50.1496 4.4268L47.2384 6.54189C47.1333 6.61829 47.0893 6.7537 47.1294 6.8773L48.2414 10.2996C48.2713 10.3917 48.1659 10.4683 48.0875 10.4114L45.1763 8.2963C45.0712 8.21991 44.9288 8.21991 44.8237 8.2963L41.9125 10.4114C41.8341 10.4683 41.7287 10.3917 41.7586 10.2996L42.8706 6.8773C42.9107 6.7537 42.8667 6.61829 42.7616 6.54189L39.8504 4.4268C39.772 4.36986 39.8123 4.2459 39.9092 4.2459H43.5076C43.6376 4.2459 43.7528 4.16221 43.7929 4.0386L44.9049 0.616312Z" fill="#E0D33C" stroke="#737373" stroke-width="0.2"/>
<path d="M57.9049 0.616312C57.9348 0.524181 58.0652 0.524181 58.0951 0.616312L59.2071 4.0386C59.2472 4.16221 59.3624 4.2459 59.4924 4.2459H63.0908C63.1877 4.2459 63.228 4.36986 63.1496 4.4268L60.2384 6.54189C60.1333 6.61829 60.0893 6.7537 60.1294 6.8773L61.2414 10.2996C61.2713 10.3917 61.1659 10.4683 61.0875 10.4114L58.1763 8.2963C58.0712 8.21991 57.9288 8.21991 57.8237 8.2963L54.9125 10.4114C54.8341 10.4683 54.7287 10.3917 54.7586 10.2996L55.8706 6.8773C55.9107 6.7537 55.8667 6.61829 55.7616 6.54189L52.8504 4.4268C52.772 4.36986 52.8123 4.2459 52.9092 4.2459H56.5076C56.6376 4.2459 56.7528 4.16221 56.7929 4.0386L57.9049 0.616312Z" fill="#E0D33C" stroke="#737373" stroke-width="0.2"/>
</svg>
